<svg width="710" height="128" viewBox="0 0 710 128" fill="none" xmlns="http://www.w3.org/2000/svg">
<g clip-path="url(#clip0_166_191)">
<path d="M0.468533 66.0509C0.468533 64.8946 0.464627 63.8087 0.468533 62.7189C0.472439 62.254 0.468532 61.797 0.570094 61.3321C0.652126 60.9454 0.593532 60.5353 0.601344 60.1329C0.609157 59.8048 0.566189 59.465 0.702908 59.1486C0.730252 59.09 0.730251 59.0157 0.726344 58.9493C0.656032 58.2384 0.851345 57.5431 0.878689 56.8321C0.898221 56.3282 1.01931 55.8321 1.09353 55.3282C1.14822 54.9376 1.199 54.5431 1.26541 54.1486C1.37869 53.4767 1.51541 52.8048 1.62088 52.1329C1.87478 50.4884 2.33572 48.8946 2.73416 47.2892C2.83963 46.8595 2.96463 46.4337 3.09353 46.0118C3.2615 45.4376 3.42166 44.8634 3.62088 44.297C4.01541 43.1681 4.41775 42.0431 4.84353 40.9259C5.71072 38.6642 6.74588 36.4806 7.87088 34.34C8.46853 33.2032 9.12088 32.0939 9.76931 30.9806C10.1678 30.2931 10.5974 29.6212 11.031 28.9532C11.3592 28.4532 11.7068 27.965 12.0623 27.4845C12.6326 26.6954 13.2068 25.9103 13.8006 25.1368C14.2732 24.5275 14.7732 23.9337 15.2654 23.3361C15.6404 22.8712 16.0232 22.4142 16.4021 21.9532C16.4451 21.9025 16.4881 21.8517 16.5349 21.8048C17.7849 20.5431 18.9021 19.1486 20.2459 17.9884C20.9178 17.4103 21.4959 16.7345 22.2263 16.215C22.6365 15.922 22.9881 15.5431 23.3787 15.2189C24.1482 14.5821 24.9021 13.9376 25.699 13.3361C27.0584 12.3048 28.449 11.3204 29.8943 10.4142C30.7224 9.89855 31.5623 9.40246 32.3943 8.89855C33.6873 8.1173 35.0349 7.44152 36.3865 6.77355C37.8982 6.02355 39.4529 5.37511 41.0154 4.74621C42.3318 4.22277 43.6717 3.75402 45.0232 3.32433C46.6482 2.81261 48.2888 2.34387 49.9451 1.96105C51.0428 1.70715 52.1482 1.49621 53.2576 1.29699C53.9959 1.16808 54.7459 1.09777 55.4881 0.996209C55.9881 0.92199 56.4881 0.836053 56.9881 0.761834C57.1443 0.738396 57.3006 0.738396 57.4529 0.73449C57.742 0.726677 58.0271 0.742303 58.3084 0.636834C58.4295 0.589959 58.574 0.605584 58.7029 0.601677C59.1482 0.593865 59.5818 0.57824 60.0271 0.496209C60.4568 0.414177 60.9099 0.472771 61.3553 0.464959C61.8396 0.45324 62.3318 0.507927 62.8084 0.355584C62.949 0.308709 63.117 0.336054 63.2732 0.336054C63.8748 0.336054 64.4724 0.332147 65.074 0.336054C65.406 0.33996 65.7342 0.312615 66.0623 0.433709C66.199 0.48449 66.367 0.461054 66.5232 0.461054C67.0349 0.46496 67.5467 0.457146 68.0584 0.472771C68.2967 0.476677 68.5388 0.519646 68.781 0.550896C68.867 0.558709 68.9568 0.597771 69.0428 0.589959C69.7771 0.519646 70.4959 0.703241 71.2263 0.742304C71.7498 0.773554 72.2732 0.879021 72.7967 0.957146C73.1678 1.00793 73.5349 1.08215 73.9099 1.12121C75.117 1.25793 76.3045 1.4923 77.492 1.75402C78.4412 1.96105 79.3943 2.15636 80.3357 2.40246C81.9412 2.82043 83.5271 3.31261 85.0974 3.85168C86.5232 4.33996 87.9256 4.88683 89.3162 5.47277C91.1599 6.25012 92.9451 7.14074 94.7107 8.07043C96.7107 9.12902 98.6131 10.3517 100.48 11.6251C101.523 12.3361 102.543 13.0782 103.531 13.8634C104.363 14.5236 105.187 15.1915 105.988 15.8907C106.406 16.2579 106.793 16.6564 107.219 17.004C108.496 18.0509 109.59 19.2736 110.754 20.4376C111.344 21.0275 111.863 21.6954 112.414 22.3321C112.719 22.6798 113.012 23.0431 113.328 23.3829C114.16 24.2775 114.879 25.2618 115.601 26.2384C116.363 27.2696 117.097 28.3282 117.793 29.4064C118.488 30.4845 119.133 31.5978 119.789 32.7032C120.465 33.8478 121.097 35.0196 121.672 36.2228C122.387 37.7228 123.043 39.2462 123.672 40.7892C124.265 42.2462 124.742 43.7462 125.234 45.2384C125.726 46.7306 126.097 48.2579 126.465 49.7853C126.742 50.9454 126.957 52.1173 127.144 53.2931C127.258 54.0118 127.406 54.7267 127.512 55.4454C127.59 55.9689 127.566 56.5118 127.683 57.0236C127.84 57.6993 127.711 58.3986 127.91 59.0626C127.961 59.2306 127.926 59.4181 127.933 59.5939C127.949 60.0353 127.89 60.4806 128.043 60.9142C128.086 61.0353 128.062 61.1798 128.062 61.3126C128.062 63.1798 128.066 65.047 128.062 66.9142C128.058 67.1329 128.015 67.3517 127.988 67.5704C127.976 67.6564 127.937 67.7462 127.941 67.8282C128.004 68.6993 127.824 69.5509 127.797 70.4142C127.789 70.6329 127.738 70.8517 127.711 71.0704C127.695 71.1798 127.672 71.2892 127.672 71.3986C127.664 72.0196 127.551 72.6251 127.433 73.2345C127.367 73.6017 127.336 73.9767 127.269 74.3478C127.082 75.4337 126.906 76.5236 126.683 77.6056C126.328 79.3595 125.863 81.09 125.344 82.8048C124.98 84.0118 124.515 85.1876 124.117 86.3868C123.668 87.7345 123.051 89.0118 122.527 90.3321C122.469 90.4767 122.394 90.6134 122.324 90.7501C121.719 91.9611 121.129 93.1837 120.5 94.3829C119.812 95.6993 119.086 96.9923 118.262 98.2306C117.883 98.8048 117.547 99.4064 117.148 99.965C116.238 101.246 115.367 102.551 114.336 103.746C113.832 104.332 113.387 104.965 112.89 105.559C112.461 106.067 112 106.543 111.558 107.043C110.679 108.043 109.777 109.024 108.793 109.922C107.961 110.684 107.172 111.492 106.289 112.199C105.769 112.613 105.308 113.098 104.797 113.52C104.168 114.043 103.531 114.563 102.867 115.039C101.629 115.934 100.387 116.824 99.1131 117.664C98.0388 118.371 96.9217 119.004 95.8162 119.66C94.6326 120.363 93.4217 121.02 92.1795 121.602C91.1131 122.102 90.0232 122.535 88.9607 123.035C87.5545 123.699 86.0701 124.16 84.617 124.699C83.5818 125.082 82.5037 125.356 81.4412 125.66C80.6951 125.871 79.9451 126.067 79.1912 126.238C77.9256 126.531 76.656 126.828 75.3631 127.012C74.7107 127.106 74.0623 127.254 73.4138 127.375C73.0662 127.438 72.7146 127.41 72.3592 127.488C71.824 127.602 71.2654 127.609 70.7146 127.668C70.4724 127.692 70.2342 127.727 69.992 127.758C69.949 127.766 69.906 127.785 69.8631 127.785C69.1092 127.758 68.3631 127.918 67.6131 127.926C65.4373 127.945 63.2576 127.934 61.0818 127.93C60.7928 127.93 60.5037 127.953 60.2263 127.832C60.1678 127.809 60.0935 127.801 60.031 127.809C59.2263 127.879 58.4412 127.695 57.6443 127.66C57.1404 127.637 56.6365 127.555 56.1326 127.488C55.6287 127.422 55.1287 127.34 54.6287 127.266C54.2771 127.215 53.9256 127.184 53.5818 127.113C52.2146 126.848 50.8553 126.57 49.4959 126.27C47.1326 125.742 44.8396 124.996 42.5662 124.199C41.2303 123.731 39.9021 123.223 38.6209 122.613C37.6795 122.168 36.7107 121.774 35.781 121.309C34.867 120.856 33.9803 120.352 33.0935 119.852C32.2615 119.383 31.4295 118.918 30.6248 118.406C29.5232 117.703 28.4451 116.969 27.367 116.231C26.8006 115.844 26.2459 115.434 25.7029 115.016C25.1092 114.559 24.5271 114.078 23.9412 113.609C23.5623 113.305 23.1834 113 22.8045 112.699C22.7498 112.656 22.6951 112.617 22.6482 112.574C21.9959 111.973 21.3474 111.367 20.6951 110.766C20.2381 110.348 19.7576 109.953 19.324 109.512C18.5154 108.688 17.7224 107.852 16.9451 107C16.3318 106.332 15.7459 105.641 15.1599 104.949C14.7732 104.492 14.3904 104.031 14.0349 103.551C13.1638 102.379 12.2928 101.207 11.4529 100.012C10.5623 98.7423 9.77713 97.4025 8.99197 96.0665C8.08181 94.5118 7.24588 92.922 6.49197 91.2931C5.79275 89.7853 5.10134 88.2736 4.57009 86.6954C4.12869 85.3946 3.64041 84.1095 3.23806 82.797C2.81619 81.422 2.44509 80.0314 2.10916 78.6368C1.82791 77.4767 1.62869 76.3009 1.40603 75.129C1.22244 74.1564 1.10525 73.1681 0.984158 72.1837C0.874783 71.2853 0.808377 70.3829 0.706814 69.4845C0.624783 68.754 0.624783 68.0275 0.593533 67.297C0.574002 66.9025 0.511502 66.5079 0.468533 66.0509ZM8.35135 80.6407C8.81228 82.0079 9.23025 83.3907 9.73806 84.7384C14.9334 98.5157 25.2303 109.871 38.5076 116.461C45.9373 120.145 53.8084 122.113 62.0857 122.442C65.0428 122.559 67.992 122.438 70.9373 122.098C73.7185 121.777 76.4724 121.285 79.1756 120.547C92.2107 116.992 102.828 109.82 110.961 99.0431C116.894 91.1798 120.539 82.3282 121.969 72.5743C122.301 70.3087 122.492 68.0275 122.558 65.7423C122.652 62.715 122.476 59.7032 122.094 56.6993C121.762 54.0743 121.25 51.4845 120.554 48.9337C116.222 33.0157 105.219 19.5431 90.5232 12.1368C83.2459 8.46887 75.5349 6.41027 67.3982 5.97277C63.7107 5.77355 60.0271 5.91808 56.3631 6.4298C53.6521 6.80871 50.9803 7.35558 48.3513 8.10168C31.7967 12.797 17.9803 24.8087 10.992 40.5665C8.66384 45.8165 7.14041 51.2892 6.43338 56.9923C6.14822 59.2892 6.00369 61.5939 5.99197 63.9064C5.97634 67.0626 6.20681 70.2071 6.71072 73.3282C7.10134 75.7657 7.6326 78.1681 8.35135 80.6407Z" fill="#F2E7D6"/>
<path d="M8.33961 80.586C7.63258 78.1681 7.10133 75.7657 6.7107 73.3282C6.2068 70.2071 5.97633 67.0626 5.99195 63.9063C6.00367 61.5938 6.1482 59.2892 6.43336 56.9923C7.14039 51.2892 8.66383 45.8165 10.992 40.5665C17.9802 24.8087 31.7966 12.797 48.3513 8.10166C50.9802 7.35556 53.6521 6.80869 56.363 6.42978C60.0271 5.91806 63.7107 5.77353 67.3982 5.97275C75.5349 6.41025 83.2459 8.46884 90.5232 12.1368C105.219 19.5431 116.222 33.0157 120.554 48.9337C121.25 51.4845 121.761 54.0743 122.094 56.6993C122.476 59.7032 122.652 62.7149 122.558 65.7423C122.492 68.0274 122.301 70.3087 121.969 72.5743C120.539 82.3282 116.894 91.1798 110.961 99.0431C102.828 109.82 92.2107 116.992 79.1755 120.547C76.4724 121.285 73.7185 121.777 70.9373 122.098C67.992 122.438 65.0427 122.559 62.0857 122.441C53.8084 122.113 45.9373 120.145 38.5076 116.461C25.2302 109.871 14.9334 98.5157 9.73805 84.7384C9.23024 83.3907 8.81227 82.0079 8.33961 80.586ZM44.9724 57.6446C45.1052 57.5001 45.238 57.3517 45.3748 57.2071C45.6716 56.8829 45.7107 56.5431 45.5701 56.1134C45.242 55.1329 44.9646 54.1329 44.7146 53.0548C46.5818 50.5899 48.449 48.1251 50.4099 45.6837C50.5232 45.7306 50.6326 45.8282 50.8396 45.6642C50.9607 45.6134 51.0818 45.5548 51.2029 45.504C51.5662 45.3673 51.8396 45.1407 52.0779 44.8204C52.6326 44.0743 53.2263 43.3517 53.8865 42.6446C56.7107 44.7735 59.531 46.9024 62.3552 49.1329C62.3865 49.3946 62.4373 49.6563 62.4412 49.9181C62.449 50.1642 62.5427 50.3321 62.7224 50.4845C63.0623 50.7657 63.3826 51.0665 63.7224 51.3477C63.9412 51.5313 64.1755 51.6915 64.4373 51.9767C64.4373 53.1251 64.4373 54.2735 64.4373 55.422C64.4373 55.4454 64.4295 55.4649 64.4216 55.4845C64.4138 55.504 64.3982 55.5196 64.3591 55.5704C64.199 55.5977 64.0115 55.629 63.8318 55.6563C63.8045 55.7188 63.7732 55.7579 63.7732 55.797C63.7654 57.2579 63.7615 58.7149 63.6404 60.1798C62.3513 60.1837 61.0623 60.1876 59.7732 60.1915C58.906 60.1915 58.9099 60.1954 58.3396 60.8048C58.1755 60.9767 58.0896 61.1524 58.0935 61.3946C58.1052 61.9493 58.1013 62.504 58.0935 63.0587C58.0935 63.2345 58.0701 63.4063 58.0584 63.6056C57.7771 63.672 57.5232 63.7423 57.2654 63.7931C56.1365 64.0196 55.0037 64.2462 53.8709 64.461C53.617 64.5079 53.4099 64.6095 53.2459 64.8009C53.1326 64.9376 53.0154 65.0743 52.9099 65.2149C52.2185 66.1407 51.5193 67.0587 50.8357 67.9884C50.488 68.461 50.0466 68.754 49.4646 68.8477C48.6326 68.9806 47.8045 69.1212 46.9724 69.2657C45.031 69.6095 43.0896 69.9571 41.1443 70.2931C40.8513 70.3438 40.5505 70.4142 40.2107 70.3946C40.2029 70.0235 40.1951 69.6954 40.1795 69.3634C40.1755 69.3048 40.1365 69.2423 40.117 69.1915C39.9802 69.1485 39.8591 69.1056 39.7068 69.0587C39.6951 68.8751 39.6795 68.7032 39.6755 68.5274C39.6716 68.0196 39.6795 67.5079 39.6716 66.9962C39.6677 66.8712 39.6287 66.7462 39.5974 66.5821C38.8709 66.586 38.1677 66.5274 37.4334 66.6251C37.4177 66.8048 37.3982 66.9532 37.3982 67.1056C37.3943 67.6173 37.3982 68.129 37.3943 68.6368C37.3904 68.7852 37.3552 68.9337 37.3396 69.0704C37.117 69.1251 36.9295 69.1681 36.7107 69.2227C36.7107 69.4727 36.7107 69.6915 36.7107 69.9102C36.7107 70.6876 36.7107 71.4688 36.7107 72.2462C36.7107 72.4181 36.7459 72.6056 36.4802 72.7267C36.2849 72.7149 36.0935 72.7032 35.8748 72.6876C35.781 71.6446 35.8982 70.6251 35.8084 69.6173C35.7146 69.5899 35.6521 69.5548 35.5896 69.5548C34.9255 69.547 34.2576 69.5392 33.5935 69.5352C33.5037 69.5352 33.406 69.5313 33.3279 69.5626C32.8865 69.7579 32.4255 69.9102 31.9763 70.172C31.9763 71.1173 31.9763 72.0431 31.9763 72.9727C31.6013 73.1407 31.2615 73.297 30.9177 73.4532C30.9177 74.1759 30.9177 74.8634 30.9177 75.5509C30.9177 76.2149 30.9216 76.8829 30.9138 77.547C30.906 78.2345 30.9529 78.922 30.8787 79.6368C29.9099 79.9259 29.0466 80.4102 28.1951 80.9415C26.1091 82.2384 24.6091 84.0235 23.6521 86.2735C23.074 87.6407 22.9138 89.0704 23.1716 90.5196C24.1951 96.2892 30.738 98.8556 35.3826 95.5196C36.8748 94.4454 38.1638 93.1681 39.2224 91.6681C40.5466 89.7892 40.9646 87.7188 40.492 85.4688C40.3045 84.5665 39.9334 83.7423 39.5545 82.9024C39.8201 82.8048 40.0935 82.7149 40.3591 82.6134C41.8123 82.0431 42.8435 81.047 43.4099 79.586C43.7849 78.6173 43.8982 77.6251 43.7615 76.5587C43.8045 76.5431 43.8474 76.5274 43.8904 76.5196C45.4802 76.2462 47.074 75.9727 48.6638 75.7071C48.7888 75.6876 48.9216 75.7267 49.0115 75.8556C48.7849 76.7501 48.7693 77.6524 49.0193 78.5352C49.4334 80.0079 50.2966 81.1329 51.656 81.922C51.2224 82.5938 50.8318 83.2892 50.5935 84.0587C50.0974 85.6642 50.0545 87.3087 50.3943 88.9298C51.2966 93.254 55.363 95.5977 59.031 95.0274C62.0505 94.5548 64.1326 92.8712 65.2576 90.0431C65.8982 88.4298 65.9021 86.7306 65.613 85.0548C65.0779 81.9298 62.6755 79.5079 59.5818 78.8517C59.4529 78.8243 59.3279 78.7813 59.2224 78.629C59.242 78.4962 59.2537 78.3634 59.2849 78.2345C59.4607 77.4884 59.4334 76.7423 59.2615 76.0001C59.0154 74.961 58.5154 74.0548 57.7302 73.3321C56.8982 72.5626 55.9099 72.0899 54.7771 71.9376C54.6482 71.9181 54.5271 71.8634 54.4529 71.7462C55.3748 70.5665 56.3084 69.3985 57.2146 68.2071C57.4451 67.9063 57.699 67.711 58.0896 67.8517C58.0935 68.3399 58.0857 68.8282 58.1013 69.3126C58.1052 69.4845 58.113 69.6876 58.2068 69.8204C58.6248 70.4142 59.074 70.9845 59.5388 71.6524C59.867 72.0938 60.199 72.5392 60.5388 72.9962C60.8005 72.9962 61.0427 72.9962 61.2849 72.9962C65.5857 72.9962 69.8826 72.9962 74.1834 72.9962C74.449 72.9962 74.7146 73.0079 74.9529 73.0977C74.8396 73.3165 74.7185 73.5274 74.617 73.7501C74.1013 74.8517 73.9607 76.0001 74.2459 77.1876C74.9959 80.2657 77.9763 81.6681 80.4216 81.1642C83.2849 80.5743 85.4021 77.6993 84.3982 74.3477C84.2615 73.8829 84.0115 73.4532 83.9334 73.0001C84.3943 72.9884 84.8513 72.9727 85.3943 72.9923C86.9177 74.1017 88.4412 75.2149 89.9724 76.3204C90.1638 76.461 90.2693 76.6329 90.3201 76.8634C90.4451 77.4532 90.4334 78.0509 90.3865 78.6563C90.1599 78.8087 89.9373 78.9571 89.7224 79.1095C87.0779 80.9688 85.8084 84.2892 86.7185 87.5157C87.2732 89.4727 88.3943 91.0782 90.0193 92.3126C90.4412 92.6329 90.8865 92.9298 91.3513 93.1915C93.1052 94.1876 94.9841 94.4688 96.9451 94.0079C102.234 92.7657 104.633 86.6915 101.656 82.1446C100.801 80.8399 99.6755 79.8204 98.4099 78.9415C97.6912 78.4415 96.8904 78.1134 96.0388 77.9181C95.8045 77.8634 95.5701 77.8009 95.2966 77.7345C95.2654 76.2892 95.3045 74.8517 95.2732 73.4298C95.031 73.2735 94.8279 73.1446 94.6013 73.0001C94.6013 72.086 94.6013 71.1798 94.6013 70.2462C94.2966 70.1173 94.0037 70.0157 93.7302 69.8712C92.8787 69.4298 91.988 69.254 91.0349 69.4024C90.8435 69.4298 90.6326 69.3595 90.449 69.5196C90.3513 70.2735 90.4841 71.0548 90.3748 71.8438C90.1638 71.9337 89.9646 72.0196 89.7459 72.1173C89.281 71.7774 88.8318 71.4571 88.3865 71.1251C88.0505 70.8751 87.7263 70.6095 87.4177 70.2227C87.4177 69.4727 87.406 68.7188 87.4295 67.9649C87.4373 67.6017 87.3552 67.3204 87.0427 67.1134C86.8787 67.004 86.7302 66.8712 86.5818 66.7384C86.488 66.6524 86.4099 66.5509 86.3005 66.4337C86.6912 66.1134 87.0466 65.8243 87.4255 65.5157C87.4255 65.297 87.4255 65.0743 87.4255 64.8556C87.4255 63.9688 87.4255 63.086 87.4255 62.1993C87.4255 61.1017 87.4255 61.1017 86.5076 60.3477C85.367 60.336 84.1951 60.3282 82.9255 60.2618C82.6834 60.2462 82.4412 60.2227 82.199 60.2227C79.5427 60.211 76.8865 60.2032 74.2302 60.1915C73.9177 60.1915 73.6091 60.1798 73.2966 60.0548C73.2966 58.6407 73.2927 57.2227 73.2888 55.8087C73.2888 55.7657 73.2576 55.7267 73.238 55.672C73.0388 55.629 72.8357 55.5821 72.6052 55.5313C72.6052 55.2813 72.6052 55.0626 72.6052 54.8438C72.6052 53.9337 72.6091 53.0274 72.6013 52.1212C72.6013 52.0001 72.5701 51.8751 72.5505 51.7462C72.1755 51.7462 71.8474 51.7462 71.4295 51.7032C70.992 51.6017 70.6209 51.3751 70.2654 51.1017C68.8513 50.0079 67.4216 48.9298 66.0076 47.8321C65.4763 47.422 64.8748 47.1563 64.2732 46.8751C64.2185 46.8477 64.1443 46.8712 64.0115 46.8087C60.9607 44.5196 57.9099 42.2306 54.8591 39.9415C54.5935 39.7423 54.3162 39.5548 54.0154 39.2892C53.9021 39.1251 53.8005 38.9532 53.6716 38.8009C53.1677 38.2188 52.5505 37.9727 51.7771 38.1602C51.0974 38.3243 50.3826 38.9845 50.4373 39.9102C50.4607 40.3009 50.3396 40.5899 50.1091 40.8751C49.7732 41.2852 49.4724 41.7267 49.1365 42.1368C48.7537 42.6056 48.5232 43.1563 48.2537 43.6915C48.1873 43.8204 48.2068 43.9454 48.2185 44.1485C45.9529 47.1212 43.6873 50.0938 41.4255 53.0665C41.3904 53.1173 41.3904 53.1915 41.2888 53.2892C40.5896 53.7774 40.4021 54.4142 40.699 55.211C40.781 55.4376 40.824 55.6837 40.8943 55.9181C41.0701 56.5313 41.2498 57.1485 41.4295 57.7579C41.7459 57.8946 42.031 58.0157 42.3123 58.1446C42.5037 58.2306 42.699 58.254 42.8982 58.2032C43.5623 58.0313 44.2263 57.8556 44.9724 57.6446ZM80.074 20.6798C79.6795 21.5235 79.281 22.3673 78.8904 23.2149C78.742 23.5352 78.6052 23.8634 78.4646 24.1876C78.4568 24.2071 78.4529 24.2306 78.4568 24.254C78.4607 24.2735 78.4724 24.2931 78.4802 24.3126C78.8591 24.5743 82.9724 26.5235 86.406 28.0704C86.5662 28.1407 86.7302 28.1915 86.949 28.2735C87.1795 27.7852 87.4998 27.3673 87.5584 26.797C86.9724 26.5196 86.4138 26.254 85.8552 25.9923C85.2732 25.7188 84.6873 25.4454 84.1052 25.1759C83.5427 24.9142 82.9724 24.6642 82.4138 24.3907C81.8435 24.1095 81.2341 23.9063 80.6755 23.5313C80.7498 23.2071 80.867 22.9337 81.1013 22.672C81.8943 22.9571 82.6365 23.3556 83.4021 23.7032C84.1912 24.0626 84.9724 24.4337 85.7576 24.7931C86.5193 25.1368 87.2576 25.5392 88.0701 25.8243C88.3474 25.4102 88.5193 24.9884 88.6951 24.5274C87.9451 24.1095 87.1638 23.7892 86.406 23.4298C85.6248 23.0626 84.8318 22.711 84.0545 22.3321C83.3005 21.9688 82.5115 21.672 81.7498 21.2188C81.8513 20.9024 81.9724 20.6251 82.1716 20.336C83.3396 20.8321 84.4685 21.3946 85.617 21.9142C86.781 22.4493 87.9334 23.0157 89.1404 23.5352C89.4373 23.0626 89.6443 22.5899 89.8201 22.0743C89.6443 21.9806 89.5115 21.9063 89.3748 21.8438C88.3513 21.3634 87.324 20.8829 86.2966 20.4063C84.7888 19.7071 83.2771 19.0079 81.7693 18.3126C81.613 18.2384 81.4646 18.1173 81.2302 18.2188C81.156 18.3673 81.0662 18.5431 80.9841 18.7227C80.6951 19.3438 80.4099 19.9688 80.074 20.6798ZM47.1052 25.6134C47.1677 25.8009 47.2029 26.004 47.4021 26.1407C47.5584 26.0938 47.7263 26.0431 47.8943 25.9884C48.8591 25.6602 49.824 25.3282 50.7927 25.004C52.3904 24.461 53.988 23.9259 55.5818 23.379C55.8045 23.3009 56.0701 23.2892 56.2146 23.0313C56.0818 22.5704 55.9568 22.1056 55.7459 21.6798C55.4255 21.6212 55.1912 21.7735 54.9451 21.8556C52.863 22.5548 50.7849 23.2618 48.7029 23.9688C48.5427 24.0235 48.3826 24.1329 48.1521 23.9962C48.074 23.7657 47.9841 23.5001 47.8826 23.1993C48.0818 23.1134 48.238 23.0352 48.4021 22.9806C50.5857 22.2306 52.7693 21.4884 54.9529 20.7423C55.0935 20.6954 55.2263 20.6212 55.3865 20.5509C55.2224 20.086 55.1521 19.629 54.8591 19.2071C54.5466 19.3048 54.2537 19.3907 53.9607 19.4884C51.9021 20.1837 49.8435 20.8829 47.7849 21.5743C47.6443 21.6212 47.4959 21.6368 47.3279 21.672C47.2341 21.3595 47.0701 21.1134 47.0896 20.8087C47.281 20.5899 47.5584 20.5665 47.8045 20.4806C49.8396 19.7813 51.8787 19.0938 53.9177 18.4024C54.1248 18.3321 54.324 18.2462 54.5545 18.1563C54.4216 17.6329 54.281 17.1563 54.0466 16.7306C53.9685 16.7188 53.9216 16.6993 53.8826 16.7032C53.7966 16.7149 53.7068 16.7306 53.6248 16.7618C50.8318 17.7149 48.0427 18.6681 45.2498 19.6251C45.2302 19.6329 45.2146 19.6485 45.199 19.6642C45.1873 19.6837 45.1795 19.7032 45.1482 19.7696C45.3279 20.3868 45.488 21.0548 45.7068 21.6993C46.1443 22.9767 46.613 24.2462 47.1052 25.6134ZM107.828 69.8868C107.297 70.1954 106.707 70.4063 106.219 70.7852C106.168 71.2071 106.09 71.6017 106.078 71.9962C106.066 72.4142 105.89 72.8165 105.988 73.2774C106.738 73.0782 107.324 72.5704 108.051 72.3282C108.172 72.547 108.269 72.7462 108.386 72.9298C108.66 73.3595 109.023 73.6798 109.535 73.7657C109.992 73.8438 110.457 73.8868 110.922 73.9259C111.465 73.9727 111.918 73.7735 112.301 73.3946C112.711 72.9884 112.957 72.5157 113.015 71.9337C113.097 71.0743 113.199 70.2149 113.297 69.3556C113.453 68.0118 113.617 66.672 113.769 65.3282C113.793 65.1368 113.863 64.9298 113.683 64.7267C111.496 64.4688 109.277 64.211 107.07 63.9806C106.902 64.4884 106.761 65.6485 106.808 66.1446C107.383 66.2267 107.965 66.3048 108.578 66.3907C108.578 66.5392 108.586 66.6446 108.574 66.754C108.535 67.1485 108.488 67.547 108.445 67.9415C108.394 68.3829 108.347 68.8243 108.297 69.2657C108.265 69.5157 108.199 69.7462 107.828 69.8868ZM72.7615 23.1602C73.4138 23.2852 74.0662 23.4063 74.7185 23.5313C74.8943 23.5626 75.0662 23.6017 75.242 23.629C75.863 23.7188 76.4334 23.586 76.9529 23.2384C77.4255 22.922 77.6482 22.4688 77.738 21.9102C77.8865 20.9688 78.0662 20.0352 78.242 19.0977C78.3396 18.5548 78.1834 18.0938 77.8513 17.672C77.4099 17.1173 76.8045 16.8868 76.1287 16.7618C73.9724 16.3751 71.8162 15.9727 69.6599 15.5782C69.5545 15.5587 69.4451 15.5665 69.3045 15.5587C69.2537 15.7735 69.1951 15.961 69.1599 16.1524C68.8005 18.0704 68.449 19.9884 68.1013 21.9063C68.0779 22.0274 68.1013 22.1563 68.1091 22.3087C69.6443 22.5899 71.1482 22.8673 72.7615 23.1602ZM107.668 51.3438C108.383 51.0431 109.101 50.7462 109.816 50.4454C110.336 50.2306 110.691 49.8595 110.875 49.3243C111.074 48.7501 111.051 48.1837 110.82 47.6329C110.176 46.0782 109.523 44.5235 108.859 42.9767C108.754 42.7345 108.605 42.5079 108.433 42.3048C107.832 41.5899 107 41.3712 106.164 41.711C105.242 42.086 104.324 42.4806 103.406 42.8673C102.926 43.0704 102.621 43.4298 102.457 43.9181C102.254 44.5118 102.277 45.0899 102.519 45.6681C103.156 47.1798 103.789 48.6954 104.426 50.2071C104.476 50.3282 104.531 50.4493 104.597 50.5626C105.195 51.5977 106.226 51.9454 107.328 51.4884C107.41 51.4532 107.492 51.4181 107.668 51.3438ZM108.652 60.2931C108.543 60.2931 108.437 60.2931 108.312 60.2931C108.273 60.1681 108.23 60.0665 108.219 59.961C108.058 58.8399 107.902 57.7188 107.746 56.6017C107.64 55.8517 107.929 55.4063 108.644 55.2149C108.73 55.1915 108.816 55.1681 108.902 55.1563C109.933 55.0118 110.969 54.8634 112 54.7227C112.238 54.6915 112.476 54.6681 112.719 54.5431C112.664 53.8477 112.57 53.1798 112.422 52.4884C112.222 52.4884 112.047 52.4688 111.879 52.4923C110.453 52.6954 109.027 52.9024 107.601 53.1212C106.648 53.2696 105.969 54.0157 105.922 54.9806C105.906 55.3087 105.945 55.6446 105.984 55.9727C106.039 56.4142 106.121 56.8477 106.183 57.2852C106.422 58.9767 106.656 60.6681 106.898 62.3556C106.914 62.4806 106.976 62.5938 107.031 62.7462C107.808 62.6446 108.554 62.547 109.297 62.4415C110.043 62.336 110.785 62.211 111.531 62.1017C112.269 61.9962 113.019 61.9454 113.769 61.7345C113.691 61.0274 113.601 60.3556 113.441 59.6212C111.859 59.7892 110.316 60.0587 108.652 60.2931ZM64.4763 20.1212C64.5076 20.4767 64.5349 20.8282 64.574 21.1837C64.613 21.5509 64.5505 21.9337 64.6873 22.3126C65.4138 22.3673 66.1091 22.3009 66.8396 22.1602C66.8396 22.0001 66.8474 21.8712 66.8357 21.7423C66.7459 20.4376 66.6521 19.129 66.5584 17.8243C66.5427 17.6017 66.5037 17.3829 66.4841 17.1602C66.4529 16.7384 66.2576 16.3985 65.9529 16.1212C65.5076 15.7188 64.9959 15.4806 64.3787 15.5079C63.8904 15.5274 63.4021 15.5392 62.9138 15.5743C61.1677 15.6954 59.4177 15.8243 57.6677 15.9532C57.449 15.9688 57.2185 15.9298 56.9802 16.0977C56.9373 17.1993 57.0935 18.3243 57.1716 19.4493C57.2498 20.5704 57.2693 21.6993 57.4529 22.836C58.1912 22.8985 58.8826 22.7774 59.5974 22.6876C59.5662 22.0782 59.5427 21.504 59.5076 20.9337C59.4724 20.379 59.406 19.8243 59.3904 19.2696C59.3709 18.7032 59.1873 18.1368 59.324 17.5274C59.574 17.4923 59.8123 17.4493 60.0545 17.4298C60.8748 17.3712 61.6951 17.3204 62.5154 17.2657C62.7341 17.254 62.9607 17.254 63.1795 17.2384C63.7498 17.1915 64.2888 17.5938 64.3396 18.2696C64.3865 18.8438 64.4295 19.422 64.4763 20.1212ZM92.2263 29.6251C92.6013 29.4923 92.9763 29.3477 93.3552 29.2227C93.7459 29.0977 94.117 28.8946 94.5857 28.8673C94.5232 29.7267 94.324 30.5235 94.2029 31.3282C94.0779 32.1602 93.9021 32.9806 93.8318 33.8321C94.4021 34.3126 94.9607 34.7852 95.5271 35.2501C95.5857 35.3009 95.6755 35.3087 95.7537 35.336C96.1287 33.7227 97.0115 28.1993 97.0037 27.5079C96.5701 27.1446 96.1091 26.7657 95.6599 26.3712C95.4685 26.2032 95.2888 26.1681 95.0545 26.254C94.492 26.4649 93.9255 26.6602 93.3591 26.8595C91.7068 27.4415 90.0505 28.0235 88.3982 28.6095C88.2459 28.6681 88.0662 28.6915 87.9607 28.8477C88.4138 29.3321 89.4255 30.172 89.8826 30.4415C90.6209 30.1837 91.3748 29.922 92.2263 29.6251ZM101.125 35.1954C101.41 34.4962 101.687 33.7931 101.988 33.0977C102.113 32.8048 102.117 32.5587 101.906 32.297C101.543 31.8517 101.207 31.379 100.851 30.9259C100.789 30.8438 100.738 30.7267 100.554 30.7813C100.511 30.8751 100.453 30.9884 100.402 31.1095C99.574 33.1212 98.7459 35.1329 97.9177 37.1446C97.8318 37.3477 97.7341 37.5509 97.6755 37.7618C97.6443 37.879 97.6365 38.0509 97.7029 38.1407C98.0974 38.6993 98.488 39.2618 98.9646 39.7696C100.261 39.6095 101.539 39.4415 102.816 39.297C104.113 39.1524 105.414 39.0392 106.832 38.8204C106.304 38.0899 105.82 37.4454 105.289 36.8048C104.715 36.8673 104.164 36.9298 103.613 36.9884C103.062 37.0509 102.511 37.0977 101.961 37.1681C101.422 37.2384 100.886 37.3282 100.289 37.3165C100.519 36.5821 100.82 35.9415 101.125 35.1954ZM83.9295 37.8634C83.6677 38.211 83.3552 38.5235 83.1248 38.9102C83.3865 39.1329 83.5896 39.3595 83.8904 39.4767C84.2107 39.1017 84.5115 38.7501 84.8318 38.3751C85.2459 38.6407 85.6013 38.9259 85.9138 39.254C85.8709 39.8751 85.8279 40.4727 85.7849 41.0392C86.2459 41.4923 86.2459 41.4923 86.6091 41.6095C86.6365 41.3868 86.6638 41.1681 86.6834 40.9493C86.7029 40.7501 86.7068 40.5509 86.7263 40.3517C86.7459 40.1407 86.7068 39.9142 86.8201 39.6915C86.9802 39.7071 87.1091 39.7227 87.238 39.7306C87.9841 39.7579 88.5076 39.4024 88.8787 38.7852C89.2341 38.1993 89.2107 37.6056 88.8826 37.0157C88.699 36.6798 88.4412 36.4063 88.1482 36.1642C87.6834 35.7852 87.2185 35.4063 86.7537 35.0313C86.656 34.9532 86.5388 34.8985 86.4412 34.8438C86.3748 34.8946 86.3318 34.9181 86.3045 34.9493C85.5349 35.8946 84.7615 36.8438 83.9295 37.8634ZM71.6795 32.1251C71.7459 31.961 71.8279 31.8009 71.8709 31.6329C72.3123 29.836 71.2771 28.6915 70.156 28.3165C69.6248 28.1368 69.0818 28.0743 68.5193 28.172C67.3005 28.3829 66.4529 29.254 66.2927 30.4884C66.1326 31.7149 66.7302 32.8009 67.8513 33.3048C69.2888 33.9571 70.7537 33.5352 71.6795 32.1251ZM60.3045 31.5196C60.3513 32.1993 60.3943 32.879 60.5154 33.5431C60.7107 33.5431 60.867 33.5548 61.0193 33.5392C61.1638 33.5274 61.3045 33.4884 61.4529 33.4571C61.4216 32.9493 61.3943 32.4884 61.363 32.0118C61.8396 31.8946 62.2771 31.8946 62.738 31.8673C63.1404 32.3399 63.5388 32.8126 63.9295 33.2696C64.2771 33.2501 64.5818 33.2774 64.9255 33.1563C64.7615 32.8204 64.5037 32.6056 64.3045 32.3517C64.1091 32.0938 63.8787 31.8634 63.699 31.5821C63.8357 31.4688 63.9373 31.3829 64.0349 31.297C64.6013 30.8009 64.7146 30.1642 64.5545 29.4767C64.3982 28.7892 63.9373 28.3673 63.2576 28.1876C62.8865 28.086 62.5115 28.0704 62.1326 28.1056C61.6912 28.1446 61.2498 28.1837 60.8084 28.2267C60.5662 28.2501 60.3279 28.2852 60.0935 28.3165C60.0701 28.4181 60.0427 28.4806 60.0466 28.5431C60.1248 29.4962 60.2107 30.4454 60.3045 31.5196ZM80.0584 37.0626C80.6599 37.3907 81.2576 37.7149 81.867 38.047C82.0545 37.8009 82.2107 37.5938 82.2302 37.2931C81.3865 36.8282 80.5545 36.3673 79.7107 35.9024C79.9255 35.4532 80.0935 35.0313 80.406 34.6798C81.1795 35.0235 81.8474 35.5001 82.6326 35.8204C82.7615 35.5743 82.867 35.3673 82.9802 35.1407C82.2615 34.6642 81.492 34.3673 80.8084 33.8829C80.9998 33.4727 81.1521 33.0704 81.4724 32.754C82.2966 33.1954 83.0935 33.6251 83.906 34.0626C84.1013 33.836 84.2263 33.6173 84.3005 33.3282C83.1834 32.7149 82.0857 32.1056 80.9724 31.5235C80.9021 31.6056 80.8513 31.6524 80.8201 31.7071C80.0388 33.1485 79.2576 34.5899 78.4763 36.0313C78.4685 36.047 78.4646 36.0743 78.4646 36.0938C78.4685 36.1134 78.4763 36.1368 78.5076 36.2227C78.9646 36.4688 79.4685 36.7423 80.0584 37.0626ZM96.0466 51.6017C96.3201 51.4532 96.6013 51.3204 96.863 51.1563C97.1873 50.9571 97.4568 50.6876 97.6638 50.3673C98.113 49.672 98.1443 48.9454 97.7615 48.2227C97.3904 47.5196 96.7927 47.129 95.988 47.1212C94.8552 47.1056 93.9255 47.5665 93.1716 48.3985C93.0701 48.5118 92.9841 48.6485 92.9138 48.7852C92.2224 50.0704 93.0623 51.672 94.5154 51.836C95.0115 51.8946 95.488 51.8126 96.0466 51.6017ZM95.9451 56.2267C95.8513 55.7813 95.6404 55.3634 95.6013 54.8321C95.7927 54.9142 95.9334 54.961 96.0584 55.0313C96.5427 55.297 97.0193 55.5821 97.5037 55.8477C97.9021 56.0665 98.3318 56.1563 98.7849 56.0899C99.5349 55.9845 100.031 55.4649 100.07 54.711C100.109 53.8946 99.8357 53.1837 99.281 52.5899C99.0896 52.3829 98.8748 52.1837 98.5193 52.1524C98.4255 52.3985 98.3357 52.6407 98.2459 52.8751C98.4177 53.0196 98.5662 53.1173 98.6873 53.2423C99.0115 53.5782 99.1755 53.9806 99.156 54.4454C99.1404 54.7892 98.9451 55.0509 98.6091 55.1056C98.3982 55.1368 98.1638 55.1212 97.9568 55.0626C97.7263 55.0001 97.5115 54.8673 97.3005 54.7501C96.6287 54.3634 95.9529 53.9845 95.2927 53.5782C94.9412 53.3634 94.6404 53.3751 94.3396 53.6056C94.3396 53.6798 94.3318 53.7267 94.3435 53.7657C94.6638 54.8712 94.9841 55.9767 95.3123 57.0782C95.3357 57.1563 95.406 57.2188 95.4724 57.3087C95.7146 57.2267 95.9373 57.1485 96.1873 57.0665C96.1091 56.7931 96.0388 56.5587 95.9451 56.2267ZM93.7693 43.254C93.863 43.4024 93.9802 43.5431 94.0466 43.7032C94.2341 44.1602 94.0623 44.547 93.6052 44.7267C93.3318 44.836 93.0466 44.836 92.7576 44.7813C91.8865 44.6134 91.0076 44.4767 90.1443 44.2813C89.7302 44.1876 89.4763 44.3282 89.2302 44.6485C89.9724 45.6915 90.6951 46.7227 91.4451 47.7384C91.7302 47.6251 91.9412 47.4845 92.1209 47.254C91.9646 47.0313 91.8318 46.8321 91.6912 46.6368C91.5388 46.4181 91.3787 46.2071 91.2302 45.9845C91.1052 45.7931 90.9177 45.6329 90.8865 45.3204C91.4334 45.422 91.9295 45.5079 92.4255 45.6056C92.863 45.6876 93.3005 45.754 93.7459 45.6876C94.7576 45.5392 95.3201 44.6524 95.0076 43.6837C94.781 42.9806 94.324 42.4493 93.6834 42.0821C93.4177 41.9259 93.1287 41.8048 92.7888 41.836C92.6912 42.1173 92.6912 42.3946 92.7615 42.6642C92.949 42.7345 93.1248 42.7774 93.2771 42.8595C93.4295 42.9454 93.5584 43.0704 93.7693 43.254ZM73.9334 30.8165C73.992 31.4571 74.031 32.0977 74.1209 32.7345C74.2107 33.3634 74.1677 34.0157 74.363 34.6407C74.6716 34.7345 74.9412 34.8985 75.2498 34.8751C75.992 34.1407 78.7107 31.047 78.992 30.6056C78.7185 30.4571 78.4334 30.3673 78.1052 30.3204C77.863 30.5899 77.6287 30.8517 77.3943 31.1173C77.1599 31.379 76.9255 31.6485 76.6873 31.9102C76.4529 32.1759 76.2224 32.4493 75.9802 32.7071C75.7498 32.9532 75.5623 33.254 75.1873 33.4884C75.0154 32.0157 74.9373 30.6095 74.7654 29.211C74.4295 29.086 74.1443 28.9493 73.7576 28.9298C73.8162 29.5548 73.8709 30.1251 73.9334 30.8165ZM97.2576 62.1524C97.2849 62.3438 97.3123 62.5352 97.3435 62.7423C97.6482 62.7579 97.906 62.7852 98.1638 62.629C98.1365 62.3595 98.113 62.1017 98.0818 61.8048C98.4334 61.7384 98.7537 61.6759 99.1013 61.6095C99.1013 61.504 99.113 61.4181 99.0974 61.336C99.0662 61.1407 99.0232 60.9532 98.9802 60.7423C98.6287 60.7579 98.3084 60.7735 97.9685 60.7892C97.9373 60.5665 97.9177 60.3907 97.8904 60.2188C97.8709 60.0626 97.8357 59.9102 97.824 59.7579C97.8123 59.5938 97.7576 59.422 97.863 59.2267C99.0115 59.8399 100.066 60.5313 101.246 61.1485C101.269 60.754 101.195 60.4415 101.121 60.1095C99.9763 59.4298 98.8279 58.754 97.6873 58.0743C97.3865 57.8946 97.1013 57.9298 96.781 58.0938C96.8826 58.9962 96.9841 59.8946 97.0857 60.7931C96.7576 61.0977 96.2927 60.8751 95.9295 61.129C95.9685 61.4063 95.9334 61.6954 96.1013 61.9806C96.3904 61.9571 96.6755 61.9337 96.9607 61.9142C97.0779 61.9024 97.1795 61.9181 97.2576 62.1524Z" fill="#121E2D"/>
<path d="M49.0504 75.7345C48.9215 75.7267 48.7887 75.6876 48.6637 75.7071C47.0739 75.9728 45.4801 76.2462 43.8903 76.5196C43.8473 76.5275 43.8043 76.5431 43.6598 76.5743C42.7457 76.7267 41.9371 76.8595 41.1325 76.9962C39.734 77.2267 38.3356 77.461 36.9371 77.6993C36.8356 77.715 36.7379 77.7775 36.6246 77.8243C36.6246 78.6525 36.6246 79.4689 36.6246 80.3048C37.7848 80.965 38.7301 81.8478 39.4684 82.9532C39.9332 83.7423 40.3043 84.5665 40.4918 85.4689C40.9645 87.7189 40.5465 89.7892 39.2223 91.6681C38.1637 93.1681 36.8746 94.4454 35.3825 95.5196C30.7379 98.8556 24.195 96.2892 23.1715 90.5196C22.9137 89.0704 23.0739 87.6407 23.652 86.2735C24.609 84.0235 26.109 82.2384 28.195 80.9415C29.0465 80.4103 29.9098 79.9259 30.8785 79.6368C30.9528 78.922 30.9059 78.2345 30.9137 77.547C30.9215 76.8829 30.9176 76.215 30.9176 75.5509C30.9176 74.8634 30.9176 74.1759 30.9176 73.4532C31.2614 73.297 31.6012 73.1407 31.9762 72.9728C31.9762 72.0431 31.9762 71.1173 31.9762 70.172C32.4254 69.9103 32.8864 69.7579 33.3278 69.5626C33.4059 69.5314 33.5035 69.5353 33.5934 69.5353C34.2575 69.5392 34.9254 69.547 35.5895 69.5548C35.652 69.5548 35.7145 69.59 35.8082 69.6173C35.8981 70.6251 35.7809 71.6446 35.8746 72.6876C36.0934 72.7032 36.2848 72.715 36.5387 72.7892C36.609 73.047 36.6207 73.2384 36.6325 73.4181C36.7184 73.4415 36.7575 73.4689 36.7965 73.465C38.0504 73.2931 39.3043 73.1173 40.5543 72.9415C41.941 72.7423 43.3239 72.5392 44.7067 72.3439C46.3551 72.1095 48.0035 71.8829 49.652 71.6485C49.7809 71.6329 49.9254 71.6017 50.0231 71.5275C50.5309 71.1329 51.0739 70.7735 51.4801 70.2657C51.9957 69.6251 52.4957 68.9728 53.0035 68.3282C53.8043 67.3165 54.6051 66.3126 55.3981 65.2931C55.6442 64.9767 55.9528 64.8009 56.3473 64.7384C56.9176 64.6485 57.484 64.5548 58.0543 64.4493C58.6364 64.34 59.2184 64.211 59.8629 64.09C60.3785 64.0235 60.8395 63.9689 61.3004 63.8868C63.4137 63.5118 65.5309 63.129 67.6442 62.7579C69.8942 62.3634 72.1442 61.9806 74.3903 61.5821C74.8551 61.5001 75.2692 61.5704 75.652 61.836C75.8903 62.004 76.1207 62.1759 76.3551 62.3439C79.3825 64.5548 82.4098 66.7657 85.441 68.9728C86.0856 69.4415 86.7418 69.8907 87.3942 70.3517C87.7262 70.6095 88.0504 70.8751 88.3864 71.1251C88.8317 71.4571 89.2809 71.7775 89.7457 72.1173C89.9645 72.0196 90.1637 71.9337 90.3746 71.8439C90.484 71.0548 90.3512 70.2735 90.4489 69.5196C90.6325 69.3595 90.8434 69.4298 91.0348 69.4025C91.9879 69.254 92.8785 69.4298 93.7301 69.8712C94.0035 70.0157 94.2965 70.1173 94.6012 70.2462C94.6012 71.1798 94.6012 72.086 94.6012 73.0001C94.8278 73.1446 95.0309 73.2735 95.2731 73.4298C95.3043 74.8517 95.2653 76.2892 95.2965 77.7345C95.57 77.8009 95.8043 77.8634 96.0387 77.9181C96.8903 78.1134 97.691 78.4415 98.4098 78.9415C99.6754 79.8204 100.8 80.84 101.656 82.1446C104.632 86.6915 102.234 92.7657 96.945 94.0079C94.984 94.4689 93.1051 94.1876 91.3512 93.1915C90.8864 92.9298 90.441 92.6329 90.0192 92.3126C88.3942 91.0782 87.2731 89.4728 86.7184 87.5157C85.8082 84.2892 87.0778 80.9689 89.7223 79.1095C89.9371 78.9571 90.1598 78.8087 90.3864 78.6564C90.4332 78.0509 90.445 77.4532 90.32 76.8634C90.2692 76.6329 90.1637 76.461 89.9723 76.3204C88.441 75.215 86.9176 74.1017 85.3278 72.9376C85.1871 72.8282 85.1207 72.7696 85.0504 72.7189C81.6364 70.2071 78.2223 67.6954 74.8082 65.1876C74.2575 64.7814 74.2418 64.7814 73.5778 64.8751C73.4684 64.8907 73.3629 64.922 73.2535 64.9415C72.4489 65.09 71.6403 65.2423 70.8356 65.3868C69.2223 65.6798 67.6051 65.965 65.9918 66.254C64.5973 66.5079 63.2028 66.7579 61.8082 67.0157C61.0895 67.1525 60.3785 67.3087 59.6051 67.4532C59.0582 67.5392 58.5739 67.629 58.0856 67.7189C57.6989 67.711 57.445 67.9064 57.2145 68.2071C56.3082 69.3985 55.3746 70.5665 54.3942 71.8048C54.1403 72.1329 53.945 72.4025 53.7614 72.6525C53.9567 73.1876 56.7614 78.0978 57.2067 78.6915C57.8707 78.7071 58.5348 78.7267 59.1989 78.7423C59.3278 78.7814 59.4528 78.8243 59.5817 78.8517C62.6754 79.5079 65.0778 81.9298 65.6129 85.0548C65.902 86.7306 65.8981 88.4298 65.2575 90.0431C64.1325 92.8712 62.0504 94.5548 59.0309 95.0275C55.3629 95.5978 51.2965 93.254 50.3942 88.9298C50.0543 87.3087 50.0973 85.6642 50.5934 84.0587C50.8317 83.2892 51.2223 82.5939 51.7067 81.8556C52.0075 81.504 52.2535 81.2189 52.5075 80.9415C52.7575 80.6642 53.1012 80.4845 53.3278 80.1368C52.691 79.0314 52.066 77.9376 51.4254 76.8517C51.3512 76.7267 51.2145 76.6134 51.0817 76.5587C50.4098 76.2735 49.7262 76.0079 49.0504 75.7345ZM91.2809 85.9142C91.2809 86.004 91.2731 86.0939 91.2731 86.1837C91.3043 88.8282 93.7457 90.7228 96.3004 90.0509C99.0426 89.3243 100.054 86.2501 98.7067 84.1056C97.7692 82.6056 96.3785 81.9845 94.5114 82.2267C94.3434 82.2735 94.1715 82.3087 94.0075 82.3712C92.441 82.9884 91.4996 84.0978 91.2809 85.9142ZM31.1559 84.6446C30.7848 84.7032 30.4059 84.7228 30.0426 84.8204C28.1715 85.3282 26.5543 87.1525 26.8903 89.6642C27.1325 91.4532 28.4059 92.8243 30.109 93.2696C31.8551 93.7267 33.6832 93.09 34.7262 91.6681C35.5153 90.59 35.7926 89.3946 35.4879 87.9845C35.359 87.5118 35.1754 87.0587 34.8942 86.6525C34.0192 85.3829 32.8239 84.6837 31.1559 84.6446ZM54.8551 84.797C54.2262 85.5939 53.9059 86.4923 53.9293 87.5118C53.984 90.34 56.8473 92.4181 59.7223 91.2384C61.3043 90.586 62.277 88.9806 62.234 87.2696C62.1754 84.8321 59.8512 82.7892 57.2184 83.3517C56.2926 83.5509 55.5348 84.0157 54.8551 84.797Z" fill="#F2E6D4"/>
<path d="M59.6637 67.4533C60.3786 67.3088 61.0895 67.1525 61.8083 67.0158C63.2028 66.758 64.5973 66.508 65.9919 66.2541C67.6051 65.965 69.2223 65.6799 70.8356 65.3869C71.6403 65.2424 72.4489 65.09 73.2536 64.9416C73.3629 64.9221 73.4684 64.8908 73.5778 64.8752C74.2419 64.7814 74.2575 64.7814 74.8083 65.1877C78.2223 67.6955 81.6364 70.2072 85.0504 72.7189C85.1208 72.7697 85.1872 72.8283 85.2848 72.9221C84.8512 72.9728 84.3942 72.9885 83.8122 73.0002C82.0036 73.0002 80.32 72.9963 78.6364 73.0002C77.4176 73.0002 76.1989 73.008 74.9801 73.0119C74.7145 73.008 74.4489 72.9963 74.1833 72.9963C69.8825 72.9963 65.5856 72.9963 61.2848 72.9963C61.0426 72.9963 60.8004 72.9963 60.5387 72.9963C60.1989 72.5393 59.8669 72.0939 59.5348 71.5471C59.5309 70.4103 59.5387 69.383 59.5348 68.3557C59.5309 68.0432 59.5622 67.7463 59.6637 67.4533Z" fill="#DF823B"/>
<path d="M87.4061 70.2891C86.7421 69.8906 86.0858 69.4414 85.4413 68.9727C82.4101 66.7656 79.3827 64.5547 76.3554 62.3438C76.121 62.1758 75.8905 62.0039 75.6522 61.8359C75.2694 61.5703 74.8554 61.5 74.3905 61.582C72.1444 61.9805 69.8944 62.3633 67.6444 62.7578C65.5311 63.1289 63.414 63.5117 61.3007 63.8867C60.8397 63.9687 60.3788 64.0234 59.8593 64.0273C59.7968 63.2266 59.8124 62.4961 59.789 61.7617C59.7772 61.3789 59.8827 61.0898 60.164 60.8242C60.7577 60.2695 60.6015 60.3398 61.3241 60.3398C68.3124 60.3398 75.3007 60.3438 82.2929 60.3438C82.5351 60.3438 82.7772 60.3281 83.0233 60.3203C84.1952 60.3281 85.3671 60.3359 86.5077 60.3477C87.4257 61.1016 87.4257 61.1016 87.4257 62.1992C87.4257 63.0859 87.4257 63.9687 87.4257 64.8555C87.4257 65.0742 87.4257 65.2969 87.4257 65.5156C87.0468 65.8242 86.6913 66.1133 86.3007 66.4336C86.4101 66.5508 86.4882 66.6523 86.5819 66.7383C86.7304 66.8711 86.8788 67.0039 87.0429 67.1133C87.3554 67.3203 87.4374 67.6016 87.4296 67.9648C87.4061 68.7187 87.4179 69.4727 87.4061 70.2891Z" fill="#DF823B"/>
<path d="M82.9727 60.2891C82.7773 60.3281 82.5352 60.3438 82.293 60.3438C75.3008 60.3438 68.3125 60.3398 61.3242 60.3398C60.6016 60.3398 60.7578 60.2695 60.1641 60.8242C59.8828 61.0898 59.7773 61.3789 59.7891 61.7617C59.8125 62.4961 59.7969 63.2266 59.8008 64.0234C59.2188 64.2109 58.6367 64.3398 58.0547 64.4492C57.4844 64.5547 56.918 64.6484 56.3477 64.7383C55.9531 64.8008 55.6445 64.9766 55.3984 65.293C54.6055 66.3125 53.8047 67.3164 53.0039 68.3281C52.4961 68.9727 51.9961 69.625 51.4805 70.2656C51.0742 70.7734 50.5312 71.1328 50.0234 71.5273C49.9258 71.6016 49.7812 71.6328 49.6523 71.6484C48.0039 71.8828 46.3555 72.1094 44.707 72.3438C43.3242 72.5391 41.9414 72.7422 40.5547 72.9414C39.3047 73.1172 38.0508 73.293 36.7969 73.4648C36.7578 73.4687 36.7188 73.4414 36.6328 73.418C36.6211 73.2383 36.6094 73.0469 36.5938 72.7969C36.7461 72.6055 36.7109 72.418 36.7109 72.2461C36.7109 71.4687 36.7109 70.6875 36.7109 69.9102C36.7109 69.6914 36.7109 69.4727 36.7109 69.2227C36.9297 69.168 37.1172 69.125 37.3398 69.0703C37.3555 68.9336 37.3906 68.7852 37.3945 68.6367C37.3984 68.1289 37.3945 67.6172 37.3984 67.1055C37.3984 66.9531 37.418 66.8047 37.4336 66.625C38.168 66.5273 38.8711 66.5859 39.5977 66.582C39.6289 66.7461 39.668 66.8711 39.6719 66.9961C39.6797 67.5078 39.6719 68.0195 39.6758 68.5273C39.6797 68.7031 39.6953 68.875 39.707 69.0586C39.8594 69.1055 39.9805 69.1484 40.1172 69.1914C40.1367 69.2422 40.1758 69.3047 40.1797 69.3633C40.1953 69.6953 40.2031 70.0234 40.2109 70.3945C40.5508 70.4141 40.8516 70.3437 41.1445 70.293C43.0898 69.957 45.0313 69.6094 46.9727 69.2656C47.8047 69.1211 48.6328 68.9805 49.4648 68.8477C50.0469 68.7539 50.4883 68.4609 50.8359 67.9883C51.5195 67.0586 52.2188 66.1406 52.9102 65.2148C53.0156 65.0742 53.1328 64.9375 53.2461 64.8008C53.4102 64.6094 53.6172 64.5078 53.8711 64.4609C55.0039 64.2461 56.1367 64.0195 57.2656 63.793C57.5234 63.7422 57.7773 63.6719 58.0586 63.6055C58.0703 63.4062 58.0938 63.2344 58.0938 63.0586C58.1016 62.5039 58.1055 61.9492 58.0938 61.3945C58.0898 61.1523 58.1758 60.9766 58.3398 60.8047C58.9102 60.1953 58.9062 60.1914 59.7734 60.1914C61.0625 60.1875 62.3516 60.1836 63.7656 60.1836C66.8945 60.1914 69.8984 60.1953 72.9023 60.1953C73.0352 60.1953 73.168 60.1797 73.3008 60.1758C73.6094 60.1797 73.918 60.1914 74.2305 60.1914C76.8867 60.2031 79.543 60.2109 82.1992 60.2227C82.4414 60.2227 82.6836 60.2461 82.9727 60.2891Z" fill="#BC4E35"/>
<path d="M74.9645 73.0544C76.1989 73.0075 77.4177 72.9997 78.6364 72.9997C80.32 72.9958 82.0036 72.9997 83.7497 73.0036C84.0114 73.4528 84.2614 73.8825 84.3981 74.3473C85.402 77.6989 83.2848 80.5739 80.4216 81.1637C77.9763 81.6676 74.9958 80.2653 74.2458 77.1872C73.9606 75.9997 74.1013 74.8512 74.6169 73.7497C74.7184 73.527 74.8395 73.3161 74.9645 73.0544Z" fill="#BE4D33"/>
<path d="M73.3007 60.1133C73.1679 60.1797 73.0351 60.1953 72.9022 60.1953C69.8983 60.1953 66.8944 60.1914 63.8241 60.1836C63.7616 58.7148 63.7655 57.2578 63.7733 55.7969C63.7733 55.7578 63.8046 55.7188 63.8319 55.6563C64.0116 55.6289 64.1991 55.5977 64.3593 55.5703C64.3983 55.5195 64.414 55.5039 64.4218 55.4844C64.4296 55.4648 64.4374 55.4453 64.4374 55.4219C64.4374 54.2734 64.4374 53.125 64.4647 51.875C64.6874 51.7539 64.8827 51.7188 65.078 51.7109C65.496 51.6914 65.914 51.6914 66.3632 51.7109C66.8983 52.1016 67.3905 52.4766 67.8983 52.8242C68.2421 53.0586 68.5155 53.3125 68.5351 53.7617C68.539 53.8906 68.6054 54.0195 68.6561 54.1406C68.9569 54.8203 69.746 55.3164 70.4726 55.2422C71.2265 55.168 71.8163 54.8086 72.1171 54.0859C72.414 53.3711 72.3163 52.7031 71.8046 52.1094C71.7069 51.9922 71.6132 51.8672 71.5194 51.7461C71.8476 51.7461 72.1757 51.7461 72.5507 51.7461C72.5702 51.875 72.6015 52 72.6015 52.1211C72.6093 53.0273 72.6054 53.9336 72.6054 54.8438C72.6054 55.0625 72.6054 55.2813 72.6054 55.5313C72.8358 55.582 73.039 55.6289 73.2382 55.6719C73.2577 55.7266 73.289 55.7656 73.289 55.8086C73.2929 57.2227 73.2968 58.6406 73.3007 60.1133Z" fill="#F2E7D5"/>
<path d="M80.0972 20.6365C80.4097 19.9686 80.6949 19.3436 80.984 18.7225C81.066 18.5428 81.1558 18.367 81.23 18.2186C81.4644 18.117 81.6129 18.2381 81.7691 18.3123C83.2769 19.0076 84.7886 19.7068 86.2965 20.4061C87.3238 20.8826 88.3511 21.3631 89.3746 21.8436C89.5113 21.9061 89.6441 21.9803 89.8199 22.074C89.6441 22.5897 89.4371 23.0623 89.1402 23.535C87.9332 23.0154 86.7808 22.449 85.6168 21.9139C84.4683 21.3943 83.3394 20.8318 82.1715 20.3358C81.9722 20.6248 81.8511 20.9022 81.7496 21.2186C82.5113 21.6717 83.3004 21.9686 84.0543 22.3318C84.8316 22.7108 85.6246 23.0623 86.4058 23.4295C87.1636 23.7889 87.9449 24.1092 88.6949 24.5272C88.5191 24.9881 88.3472 25.41 88.0699 25.824C87.2574 25.5389 86.5191 25.1365 85.7574 24.7928C84.9722 24.4334 84.191 24.0623 83.4019 23.7029C82.6363 23.3553 81.8941 22.9568 81.1011 22.6717C80.8668 22.9334 80.7496 23.2068 80.6754 23.5311C81.234 23.9061 81.8433 24.1092 82.4136 24.3904C82.9722 24.6639 83.5425 24.9139 84.105 25.1756C84.6871 25.4451 85.273 25.7186 85.855 25.992C86.4136 26.2537 86.9722 26.5193 87.5582 26.7967C87.4996 27.367 87.1793 27.785 86.9488 28.2733C86.73 28.1912 86.566 28.1404 86.4058 28.0701C82.9722 26.5233 78.859 24.574 78.48 24.3123C78.4722 24.2928 78.4605 24.2733 78.4566 24.2537C78.4527 24.2303 78.4566 24.2068 78.4644 24.1873C78.605 23.8631 78.7418 23.535 78.8902 23.2147C79.2808 22.367 79.6793 21.5233 80.0972 20.6365Z" fill="#DA7F3A"/>
<path d="M47.0898 25.5669C46.6133 24.2466 46.1445 22.9771 45.707 21.6997C45.4883 21.0552 45.3281 20.3872 45.1484 19.77C45.1797 19.7036 45.1875 19.6841 45.1992 19.6646C45.2148 19.6489 45.2305 19.6333 45.25 19.6255C48.043 18.6685 50.832 17.7154 53.625 16.7622C53.707 16.731 53.7969 16.7154 53.8828 16.7036C53.9219 16.6997 53.9688 16.7193 54.0469 16.731C54.2812 17.1568 54.4219 17.6333 54.5547 18.1568C54.3242 18.2466 54.125 18.3325 53.918 18.4029C51.8789 19.0943 49.8398 19.7818 47.8047 20.481C47.5586 20.5669 47.2812 20.5904 47.0898 20.8091C47.0703 21.1138 47.2344 21.3599 47.3281 21.6724C47.4961 21.6372 47.6445 21.6216 47.7852 21.5747C49.8438 20.8833 51.9023 20.1841 53.9609 19.4888C54.2539 19.3911 54.5469 19.3052 54.8594 19.2075C55.1523 19.6294 55.2227 20.0864 55.3867 20.5513C55.2266 20.6216 55.0938 20.6958 54.9531 20.7427C52.7695 21.4888 50.5859 22.231 48.4023 22.981C48.2383 23.0357 48.082 23.1138 47.8828 23.1997C47.9844 23.5005 48.0742 23.7661 48.1523 23.9966C48.3828 24.1333 48.543 24.0239 48.7031 23.9693C50.7852 23.2622 52.8633 22.5552 54.9453 21.856C55.1914 21.7739 55.4258 21.6216 55.7461 21.6802C55.957 22.106 56.082 22.5708 56.2148 23.0318C56.0703 23.2896 55.8047 23.3013 55.582 23.3794C53.9883 23.9263 52.3906 24.4614 50.793 25.0044C49.8242 25.3286 48.8594 25.6607 47.8945 25.9888C47.7266 26.0435 47.5586 26.0943 47.4023 26.1411C47.2031 26.0044 47.168 25.8013 47.0898 25.5669Z" fill="#DA7F3A"/>
<path d="M107.875 69.8594C108.199 69.7461 108.265 69.5156 108.297 69.2656C108.347 68.8242 108.394 68.3828 108.445 67.9414C108.488 67.5469 108.535 67.1484 108.574 66.7539C108.586 66.6445 108.578 66.5391 108.578 66.3906C107.964 66.3047 107.382 66.2266 106.808 66.1445C106.761 65.6484 106.902 64.4883 107.07 63.9805C109.277 64.2109 111.496 64.4688 113.683 64.7266C113.863 64.9297 113.793 65.1367 113.769 65.3281C113.617 66.6719 113.453 68.0117 113.297 69.3555C113.199 70.2148 113.097 71.0742 113.015 71.9336C112.957 72.5156 112.711 72.9883 112.3 73.3945C111.918 73.7734 111.464 73.9727 110.922 73.9258C110.457 73.8867 109.992 73.8438 109.535 73.7656C109.023 73.6797 108.66 73.3594 108.386 72.9297C108.269 72.7461 108.172 72.5469 108.05 72.3281C107.324 72.5703 106.738 73.0781 105.988 73.2773C105.89 72.8164 106.066 72.4141 106.078 71.9961C106.089 71.6016 106.168 71.207 106.218 70.7852C106.707 70.4063 107.297 70.1953 107.875 69.8594ZM111.777 68.3672C111.765 67.8437 111.961 67.3281 111.902 66.7656C111.332 66.707 110.812 66.5156 110.238 66.6484C110.089 67.9727 109.941 69.2656 109.797 70.5586C109.785 70.6914 109.781 70.8242 109.793 70.957C109.828 71.3281 110.089 71.582 110.484 71.6484C110.902 71.7187 111.273 71.5391 111.402 71.1719C111.472 70.9688 111.496 70.7422 111.523 70.5273C111.609 69.8477 111.683 69.1641 111.777 68.3672Z" fill="#DC803A"/>
<path d="M72.703 23.1523C71.1483 22.8672 69.6444 22.5898 68.1093 22.3086C68.1015 22.1562 68.078 22.0273 68.1015 21.9062C68.4491 19.9883 68.8007 18.0703 69.1601 16.1523C69.1952 15.9609 69.2538 15.7734 69.3046 15.5586C69.4452 15.5664 69.5546 15.5586 69.6601 15.5781C71.8163 15.9727 73.9726 16.375 76.1288 16.7617C76.8046 16.8867 77.4101 17.1172 77.8515 17.6719C78.1835 18.0938 78.3397 18.5547 78.2421 19.0977C78.0663 20.0352 77.8866 20.9688 77.7382 21.9102C77.6483 22.4688 77.4257 22.9219 76.953 23.2383C76.4335 23.5859 75.8632 23.7188 75.2421 23.6289C75.0663 23.6016 74.8944 23.5625 74.7186 23.5312C74.0663 23.4062 73.414 23.2852 72.703 23.1523ZM73.6679 17.9961C72.8476 17.8594 72.0351 17.6641 71.2147 17.5742C70.9179 18.543 70.578 20.5703 70.6327 21.0938C71.0272 21.168 71.4335 21.2461 71.8436 21.3242C72.6288 21.4727 73.4101 21.6289 74.1913 21.7695C75.0351 21.918 75.5116 21.5938 75.6796 20.7656C75.7538 20.3984 75.8319 20.0273 75.8983 19.6602C76.0272 18.8945 75.6601 18.3672 74.8905 18.2188C74.5194 18.1484 74.1483 18.0898 73.6679 17.9961Z" fill="#DB803A"/>
<path d="M107.621 51.3629C107.492 51.4176 107.41 51.4528 107.328 51.4879C106.226 51.945 105.195 51.5973 104.597 50.5621C104.531 50.4489 104.476 50.3278 104.425 50.2067C103.789 48.695 103.156 47.1793 102.519 45.6676C102.277 45.0895 102.254 44.5114 102.457 43.9176C102.621 43.4293 102.925 43.07 103.406 42.8668C104.324 42.4801 105.242 42.0856 106.164 41.7106C107 41.3707 107.832 41.5895 108.433 42.3043C108.605 42.5075 108.754 42.734 108.859 42.9762C109.523 44.5231 110.175 46.0778 110.82 47.6325C111.05 48.1832 111.074 48.7496 110.875 49.3239C110.691 49.859 110.336 50.2301 109.816 50.445C109.101 50.7457 108.382 51.0426 107.621 51.3629ZM107.66 48.9411C107.921 48.82 108.195 48.7223 108.441 48.57C108.898 48.2848 109.074 47.8004 108.879 47.3043C108.519 46.3981 108.148 45.4918 107.75 44.6012C107.488 44.027 106.957 43.8239 106.359 44.0387C105.921 44.1989 105.488 44.3786 105.066 44.5778C104.433 44.8746 104.214 45.4176 104.472 46.0661C104.808 46.9137 105.16 47.7536 105.531 48.5856C105.816 49.2262 106.339 49.4332 107.007 49.2067C107.199 49.1442 107.379 49.0582 107.66 48.9411Z" fill="#DC803A"/>
<path d="M108.707 60.2772C110.316 60.0584 111.859 59.7889 113.441 59.6209C113.601 60.3553 113.691 61.0272 113.769 61.7342C113.019 61.9451 112.269 61.9959 111.531 62.1014C110.785 62.2108 110.043 62.3358 109.296 62.4412C108.554 62.5467 107.808 62.6443 107.031 62.7459C106.976 62.5936 106.914 62.4803 106.898 62.3553C106.656 60.6678 106.421 58.9764 106.183 57.285C106.121 56.8475 106.039 56.4139 105.984 55.9725C105.945 55.6443 105.906 55.3084 105.921 54.9803C105.968 54.0154 106.648 53.2693 107.601 53.1209C109.027 52.9022 110.453 52.6951 111.879 52.492C112.046 52.4686 112.222 52.4881 112.421 52.4881C112.57 53.1795 112.664 53.8475 112.718 54.5428C112.476 54.6678 112.238 54.6912 112 54.7225C110.968 54.8631 109.933 55.0115 108.902 55.1561C108.816 55.1678 108.73 55.1912 108.644 55.2147C107.929 55.4061 107.64 55.8514 107.746 56.6014C107.902 57.7186 108.058 58.8397 108.218 59.9608C108.23 60.0662 108.273 60.1678 108.312 60.2928C108.437 60.2928 108.543 60.2928 108.707 60.2772Z" fill="#DB803A"/>
<path d="M64.4727 20.0588C64.4297 19.422 64.3867 18.8439 64.3399 18.2697C64.2891 17.5939 63.75 17.1916 63.1797 17.2385C62.961 17.2541 62.7344 17.2541 62.5156 17.2658C61.6953 17.3205 60.875 17.3713 60.0547 17.4299C59.8125 17.4494 59.5742 17.4924 59.3242 17.5275C59.1875 18.1369 59.3711 18.7033 59.3906 19.2697C59.4063 19.8244 59.4727 20.3791 59.5078 20.9338C59.543 21.5041 59.5664 22.0783 59.5977 22.6877C58.8828 22.7775 58.1914 22.8986 57.4531 22.8361C57.2696 21.6994 57.25 20.5705 57.1719 19.4494C57.0938 18.3244 56.9375 17.1994 56.9805 16.0978C57.2188 15.9299 57.4492 15.9689 57.668 15.9533C59.418 15.8244 61.168 15.6955 62.9141 15.5744C63.4024 15.5392 63.8906 15.5275 64.3789 15.508C64.9961 15.4806 65.5078 15.7189 65.9531 16.1213C66.2578 16.3986 66.4531 16.7385 66.4844 17.1603C66.5039 17.383 66.543 17.6017 66.5586 17.8244C66.6524 19.1291 66.7461 20.4377 66.836 21.7424C66.8477 21.8713 66.8399 22.0002 66.8399 22.1603C66.1094 22.301 65.4141 22.3674 64.6875 22.3127C64.5508 21.9338 64.6133 21.551 64.5742 21.1838C64.5352 20.8283 64.5078 20.4767 64.4727 20.0588Z" fill="#DB803A"/>
<path d="M62.3555 49.0312C59.5312 46.9023 56.7109 44.7734 53.8203 42.5938C53.418 42.293 53.0859 42.0391 52.7734 41.75C52.8906 41.6602 52.9844 41.6055 53.082 41.5508C53.7422 41.1641 54.0859 40.5977 54.0625 39.8242C54.0586 39.6719 54.0508 39.5195 54.0469 39.3633C54.3164 39.5547 54.5938 39.7422 54.8594 39.9414C57.9102 42.2305 60.9609 44.5195 64.0273 46.8828C63.9102 47.1328 63.7813 47.3086 63.6445 47.4844C63.2539 47.9922 62.8633 48.5 62.4414 49.0078C62.4102 49.0117 62.3555 49.0312 62.3555 49.0312Z" fill="#EFE4D3"/>
<path d="M92.1758 29.6448C91.375 29.9222 90.6211 30.1839 89.8828 30.4417C89.4258 30.1722 88.4141 29.3323 87.9609 28.848C88.0664 28.6917 88.2461 28.6683 88.3984 28.6097C90.0508 28.0237 91.707 27.4417 93.3594 26.8597C93.9258 26.6605 94.4922 26.4652 95.0547 26.2542C95.2891 26.1683 95.4688 26.2034 95.6602 26.3714C96.1094 26.7659 96.5703 27.1448 97.0039 27.5081C97.0117 28.1995 96.1289 33.723 95.7539 35.3362C95.6758 35.3089 95.5859 35.3011 95.5273 35.2503C94.9609 34.7855 94.4023 34.3128 93.832 33.8323C93.9023 32.9808 94.0781 32.1605 94.2031 31.3284C94.3242 30.5237 94.5234 29.7269 94.5859 28.8675C94.1172 28.8948 93.7461 29.098 93.3555 29.223C92.9766 29.348 92.6016 29.4925 92.1758 29.6448Z" fill="#DB803A"/>
<path d="M101.109 35.2425C100.82 35.9418 100.519 36.5824 100.289 37.3168C100.887 37.3285 101.422 37.2386 101.961 37.1683C102.512 37.098 103.062 37.0511 103.613 36.9886C104.164 36.9301 104.715 36.8675 105.289 36.805C105.82 37.4457 106.305 38.0902 106.832 38.8207C105.414 39.0394 104.113 39.1527 102.816 39.2972C101.539 39.4418 100.262 39.6097 98.9647 39.7699C98.4882 39.2621 98.0975 38.6996 97.703 38.141C97.6366 38.0511 97.6444 37.8793 97.6757 37.7621C97.7343 37.5511 97.8319 37.348 97.9179 37.1449C98.746 35.1332 99.5741 33.1215 100.402 31.1097C100.453 30.9886 100.512 30.8754 100.555 30.7816C100.738 30.7269 100.789 30.8441 100.851 30.9261C101.207 31.3793 101.543 31.8519 101.906 32.2972C102.117 32.559 102.113 32.8051 101.988 33.098C101.687 33.7933 101.41 34.4965 101.109 35.2425Z" fill="#DB803A"/>
<path d="M62.4688 49.0079C62.8633 48.5001 63.2539 47.9923 63.6445 47.4845C63.7813 47.3087 63.9102 47.1329 64.0625 46.9103C64.1445 46.8712 64.2187 46.8478 64.2734 46.8751C64.875 47.1564 65.4766 47.422 66.0078 47.8322C67.4219 48.9298 68.8516 50.0079 70.2656 51.1017C70.6211 51.3751 70.9922 51.6017 71.4766 51.7228C71.6133 51.8673 71.707 51.9923 71.8047 52.1095C72.3164 52.7033 72.4141 53.3712 72.1172 54.0861C71.8164 54.8087 71.2266 55.1681 70.4727 55.2423C69.7461 55.3165 68.957 54.8204 68.6562 54.1408C68.6055 54.0197 68.5391 53.8908 68.5352 53.7618C68.5156 53.3126 68.2422 53.0587 67.8984 52.8243C67.3906 52.4767 66.8984 52.1017 66.3438 51.672C65.9453 51.3322 65.6055 51.0587 65.2578 50.7931C64.457 50.1837 63.6836 49.5353 62.6992 49.2267C62.6094 49.1993 62.543 49.0822 62.4688 49.0079Z" fill="#DE823C"/>
<path d="M39.5117 82.9258C38.7305 81.8477 37.7852 80.9648 36.625 80.3047C36.625 79.4687 36.625 78.6523 36.625 77.8242C36.7383 77.7773 36.8359 77.7148 36.9375 77.6992C38.3359 77.4609 39.7344 77.2266 41.1328 76.9961C41.9375 76.8594 42.7461 76.7266 43.6094 76.5977C43.8984 77.625 43.7852 78.6172 43.4102 79.5859C42.8438 81.0469 41.8125 82.043 40.3594 82.6133C40.0938 82.7148 39.8203 82.8047 39.5117 82.9258Z" fill="#BE4E34"/>
<path d="M50.3203 45.6602C48.4492 48.125 46.582 50.5898 44.6562 53.1211C44.2031 53.6914 43.8047 54.1953 43.3906 54.6602C43.3203 54.4531 43.2852 54.2812 43.2227 54.1211C43.0234 53.5898 42.6367 53.2617 42.0742 53.1836C41.8477 53.1523 41.6055 53.2266 41.3711 53.2578C41.3906 53.1914 41.3906 53.1172 41.4258 53.0664C43.6875 50.0938 45.9531 47.1211 48.2852 44.125C48.9688 44.5625 49.5937 45.0273 50.2109 45.4961C50.2578 45.5312 50.2813 45.6055 50.3203 45.6602Z" fill="#EFE4D3"/>
<path d="M59.2109 78.6875C58.5352 78.7266 57.8711 78.707 57.207 78.6914C56.7617 78.0977 53.957 73.1875 53.7617 72.6523C53.9453 72.4023 54.1406 72.1328 54.3672 71.8477C54.5273 71.8633 54.6484 71.918 54.7773 71.9375C55.9102 72.0898 56.8984 72.5625 57.7305 73.332C58.5156 74.0547 59.0156 74.9609 59.2617 76C59.4336 76.7422 59.4609 77.4883 59.2852 78.2344C59.2539 78.3633 59.2422 78.4961 59.2109 78.6875Z" fill="#BE4E35"/>
<path d="M50.3632 45.6722C50.2812 45.6058 50.2577 45.5316 50.2108 45.4964C49.5937 45.0277 48.9687 44.5628 48.3124 44.0823C48.2069 43.9456 48.1874 43.8206 48.2538 43.6917C48.5233 43.1566 48.7538 42.6058 49.1366 42.137C49.4726 41.7269 49.7733 41.2855 50.1093 40.8753C50.3398 40.5902 50.4608 40.3011 50.4374 39.9105C50.3827 38.9847 51.0976 38.3245 51.7773 38.1605C52.5507 37.973 53.1679 38.2191 53.6718 38.8011C53.8007 38.9534 53.9023 39.1253 54.0312 39.3284C54.0507 39.5198 54.0585 39.6722 54.0624 39.8245C54.0858 40.598 53.7421 41.1644 53.0819 41.5511C52.9843 41.6058 52.8905 41.6605 52.7304 41.7737C52.1093 42.5628 51.5507 43.2894 50.996 44.0198C50.9452 44.0863 50.8944 44.1722 50.8827 44.2542C50.8319 44.7308 50.789 45.2073 50.746 45.6839C50.6327 45.8284 50.5233 45.7308 50.3632 45.6722Z" fill="#DE813B"/>
<path d="M49.0309 75.7969C49.7262 76.0078 50.4098 76.2734 51.0817 76.5586C51.2145 76.6133 51.3512 76.7266 51.4254 76.8516C52.0661 77.9375 52.6911 79.0312 53.3278 80.1367C53.1012 80.4844 52.7575 80.6641 52.5075 80.9414C52.2536 81.2188 52.0075 81.5039 51.7184 81.8086C50.2965 81.1328 49.4332 80.0078 49.0192 78.5352C48.7692 77.6523 48.7848 76.75 49.0309 75.7969Z" fill="#BE4E35"/>
<path d="M83.9609 37.8242C84.7617 36.8437 85.5352 35.8945 86.3047 34.9492C86.332 34.918 86.375 34.8945 86.4414 34.8438C86.5391 34.8984 86.6563 34.9531 86.7539 35.0312C87.2188 35.4062 87.6836 35.7852 88.1484 36.1641C88.4414 36.4063 88.6992 36.6797 88.8828 37.0156C89.2109 37.6055 89.2344 38.1992 88.8789 38.7852C88.5078 39.4023 87.9844 39.7578 87.2383 39.7305C87.1094 39.7227 86.9805 39.707 86.8203 39.6914C86.707 39.9141 86.7461 40.1406 86.7266 40.3516C86.707 40.5508 86.7031 40.75 86.6836 40.9492C86.6641 41.168 86.6367 41.3867 86.6094 41.6094C86.2461 41.4922 86.2461 41.4922 85.7852 41.0391C85.8281 40.4727 85.8711 39.875 85.9141 39.2539C85.6016 38.9258 85.2461 38.6406 84.832 38.375C84.5117 38.75 84.2109 39.1016 83.8906 39.4766C83.5898 39.3594 83.3867 39.1328 83.125 38.9102C83.3555 38.5234 83.668 38.2109 83.9609 37.8242ZM87.375 38.7734C88.2852 38.3281 88.4336 37.6211 87.7344 36.9414C87.418 36.6367 87.082 36.3438 86.6562 36.1016C86.4414 36.3633 86.2266 36.6094 86.0273 36.8711C85.8164 37.1484 85.543 37.3789 85.4062 37.7266C85.7188 37.9844 86.0039 38.2266 86.3047 38.457C86.5898 38.6758 86.9023 38.8398 87.375 38.7734Z" fill="#E8DECE"/>
<path d="M71.6599 32.1719C70.7537 33.5352 69.2889 33.9571 67.8514 33.3047C66.7303 32.8008 66.1326 31.7149 66.2928 30.4883C66.4529 29.254 67.3006 28.3829 68.5193 28.1719C69.0818 28.0743 69.6248 28.1368 70.156 28.3165C71.2771 28.6915 72.3123 29.836 71.8709 31.6329C71.8279 31.8008 71.7459 31.961 71.6599 32.1719ZM70.9764 30.7032C70.9529 30.5743 70.9295 30.4415 70.8982 30.3165C70.6912 29.4766 69.8553 28.9766 69.0428 29.0001C68.2264 29.0274 67.5779 29.5313 67.3396 30.336C67.0428 31.3477 67.5818 32.336 68.5896 32.629C69.6482 32.9337 70.6248 32.3907 70.9021 31.3321C70.949 31.1641 70.9529 30.9844 70.9764 30.7032Z" fill="#E9DFCF"/>
<path d="M60.3007 31.4574C60.2108 30.4457 60.1249 29.4965 60.0468 28.5434C60.0429 28.4809 60.0702 28.4184 60.0936 28.3168C60.328 28.2856 60.5663 28.2504 60.8085 28.227C61.2499 28.184 61.6913 28.1449 62.1327 28.1059C62.5116 28.0707 62.8866 28.0863 63.2577 28.1879C63.9374 28.3676 64.3983 28.7895 64.5546 29.477C64.7147 30.1645 64.6014 30.8012 64.035 31.2973C63.9374 31.3832 63.8358 31.4692 63.6991 31.5824C63.8788 31.8637 64.1093 32.0942 64.3046 32.352C64.5038 32.6059 64.7616 32.8207 64.9257 33.1567C64.5819 33.2778 64.2772 33.2504 63.9296 33.2699C63.5389 32.8129 63.1405 32.3403 62.7382 31.8676C62.2772 31.8949 61.8397 31.8949 61.3632 32.0121C61.3944 32.4887 61.4218 32.9496 61.453 33.4574C61.3046 33.4887 61.1639 33.5278 61.0194 33.5395C60.8671 33.5551 60.7108 33.5434 60.5155 33.5434C60.3944 32.8793 60.3514 32.1996 60.3007 31.4574ZM61.1093 29.2348C61.1444 29.8676 61.16 30.5043 61.3358 31.1528C61.8085 31.102 62.2499 31.059 62.6874 30.9965C62.8163 30.9809 62.9452 30.9301 63.0624 30.8715C63.4843 30.6606 63.6757 30.2817 63.5975 29.8285C63.5194 29.3481 63.2538 29.0434 62.785 28.9926C62.2382 28.934 61.6835 28.934 61.1093 29.2348Z" fill="#E8DECE"/>
<path d="M80.0156 37.0391C79.4688 36.7422 78.9648 36.4688 78.5078 36.2227C78.4766 36.1367 78.4687 36.1133 78.4648 36.0938C78.4648 36.0742 78.4688 36.0469 78.4766 36.0312C79.2578 34.5898 80.0391 33.1484 80.8203 31.707C80.8516 31.6523 80.9023 31.6055 80.9727 31.5234C82.0859 32.1055 83.1836 32.7148 84.3008 33.3281C84.2266 33.6172 84.1016 33.8359 83.9062 34.0625C83.0938 33.625 82.2969 33.1953 81.4727 32.7539C81.1523 33.0703 81 33.4727 80.8086 33.8828C81.4922 34.3672 82.2617 34.6641 82.9805 35.1406C82.8672 35.3672 82.7617 35.5742 82.6328 35.8203C81.8477 35.5 81.1797 35.0234 80.4062 34.6797C80.0938 35.0312 79.9258 35.4531 79.7109 35.9023C80.5547 36.3672 81.3867 36.8281 82.2305 37.293C82.2109 37.5937 82.0547 37.8008 81.8672 38.0469C81.2578 37.7148 80.6602 37.3906 80.0156 37.0391Z" fill="#E8DECD"/>
<path d="M41.3318 53.2731C41.6052 53.2262 41.8474 53.152 42.074 53.1832C42.6365 53.2614 43.0232 53.5895 43.2224 54.1207C43.2849 54.2809 43.3201 54.4528 43.3904 54.7145C43.531 55.2535 43.6755 55.6871 43.7536 56.1325C43.8708 56.8004 44.1677 57.3082 44.8005 57.5856C44.8396 57.6012 44.8591 57.6481 44.8904 57.6793C44.2263 57.8551 43.5622 58.0309 42.8982 58.2028C42.699 58.2535 42.5036 58.2301 42.3122 58.1442C42.031 58.0153 41.7458 57.8942 41.4294 57.7575C41.2497 57.1481 41.0701 56.5309 40.8943 55.9176C40.824 55.6832 40.781 55.4371 40.699 55.2106C40.4021 54.4137 40.5896 53.777 41.3318 53.2731Z" fill="#DE813B"/>
<path d="M95.9999 51.6215C95.4881 51.8129 95.0116 51.8949 94.5155 51.8363C93.0624 51.6723 92.2225 50.0707 92.9139 48.7855C92.9842 48.6488 93.0702 48.5121 93.1717 48.3988C93.9256 47.5668 94.8553 47.1059 95.9881 47.1215C96.7928 47.1293 97.3905 47.5199 97.7616 48.223C98.1444 48.9457 98.1131 49.6723 97.6639 50.3676C97.4569 50.6879 97.1874 50.9574 96.8631 51.1566C96.6014 51.3207 96.3202 51.4535 95.9999 51.6215ZM94.0506 50.7309C94.1756 50.7777 94.2967 50.8598 94.4217 50.8676C95.4452 50.9379 96.2733 50.5316 96.9178 49.7621C97.1952 49.4301 97.2069 49.0316 96.996 48.641C96.785 48.2543 96.4569 48.0473 96.0233 48.0707C95.1444 48.1215 94.3983 48.4769 93.8202 49.141C93.496 49.5082 93.453 49.934 93.7108 50.3676C93.7772 50.4809 93.8788 50.5707 94.0506 50.7309Z" fill="#E9DFCF"/>
<path d="M95.9606 56.2773C96.0387 56.5586 96.109 56.793 96.1871 57.0664C95.9371 57.1484 95.7145 57.2266 95.4723 57.3086C95.4059 57.2187 95.3356 57.1562 95.3121 57.0781C94.984 55.9766 94.6637 54.8711 94.3434 53.7656C94.3317 53.7266 94.3395 53.6797 94.3395 53.6055C94.6402 53.375 94.941 53.3633 95.2926 53.5781C95.9527 53.9844 96.6285 54.3633 97.3004 54.75C97.5113 54.8672 97.7262 55 97.9567 55.0625C98.1637 55.1211 98.3981 55.1367 98.609 55.1055C98.9449 55.0508 99.1402 54.7891 99.1559 54.4453C99.1754 53.9805 99.0113 53.5781 98.6871 53.2422C98.566 53.1172 98.4176 53.0195 98.2457 52.875C98.3356 52.6406 98.4254 52.3984 98.5192 52.1523C98.8746 52.1836 99.0895 52.3828 99.2809 52.5898C99.8356 53.1836 100.109 53.8945 100.07 54.7109C100.031 55.4648 99.5348 55.9844 98.7848 56.0898C98.3317 56.1562 97.902 56.0664 97.5035 55.8477C97.0192 55.582 96.5426 55.2969 96.0582 55.0312C95.9332 54.9609 95.7926 54.9141 95.6012 54.832C95.6402 55.3633 95.8512 55.7812 95.9606 56.2773Z" fill="#E8DECD"/>
<path d="M93.7344 43.2149C93.5586 43.0704 93.4297 42.9454 93.2773 42.8594C93.125 42.7774 92.9492 42.7344 92.7617 42.6641C92.6914 42.3946 92.6914 42.1172 92.7891 41.836C93.1289 41.8047 93.418 41.9258 93.6836 42.0821C94.3242 42.4493 94.7813 42.9805 95.0078 43.6837C95.3203 44.6524 94.7578 45.5391 93.7461 45.6876C93.3008 45.754 92.8633 45.6876 92.4258 45.6055C91.9297 45.5079 91.4336 45.4219 90.8867 45.3204C90.918 45.6329 91.1055 45.793 91.2305 45.9844C91.3789 46.2071 91.5391 46.418 91.6914 46.6368C91.832 46.8321 91.9648 47.0313 92.1211 47.254C91.9414 47.4844 91.7305 47.6251 91.4453 47.7383C90.6953 46.7227 89.9727 45.6915 89.2305 44.6485C89.4766 44.3282 89.7305 44.1876 90.1445 44.2813C91.0078 44.4766 91.8867 44.6133 92.7578 44.7813C93.0469 44.836 93.332 44.836 93.6055 44.7266C94.0625 44.5469 94.2344 44.1602 94.0469 43.7032C93.9805 43.543 93.8633 43.4024 93.7344 43.2149Z" fill="#E8DECD"/>
<path d="M73.9297 30.7539C73.8711 30.125 73.8164 29.5547 73.7578 28.9297C74.1445 28.9492 74.4297 29.0859 74.7656 29.2109C74.9375 30.6094 75.0156 32.0156 75.1875 33.4883C75.5625 33.2539 75.75 32.9531 75.9805 32.707C76.2227 32.4492 76.4531 32.1758 76.6875 31.9102C76.9258 31.6484 77.1602 31.3789 77.3945 31.1172C77.6289 30.8516 77.8633 30.5898 78.1055 30.3203C78.4336 30.3672 78.7187 30.457 78.9922 30.6055C78.7109 31.0469 75.9922 34.1406 75.25 34.875C74.9414 34.8984 74.6719 34.7344 74.3633 34.6406C74.168 34.0156 74.2109 33.3633 74.1211 32.7344C74.0312 32.0977 73.9922 31.457 73.9297 30.7539Z" fill="#E8DECD"/>
<path d="M97.25 62.0936C97.1797 61.9178 97.0781 61.9022 96.9609 61.9139C96.6758 61.9334 96.3906 61.9569 96.1016 61.9803C95.9336 61.6951 95.9687 61.4061 95.9297 61.1287C96.293 60.8748 96.7578 61.0975 97.0859 60.7928C96.9844 59.8944 96.8828 58.9959 96.7812 58.0936C97.1016 57.9295 97.3867 57.8944 97.6875 58.0741C98.8281 58.7537 99.9766 59.4295 101.121 60.1092C101.195 60.4412 101.27 60.7537 101.246 61.1483C100.066 60.5311 99.0117 59.8397 97.8633 59.2264C97.7578 59.4217 97.8125 59.5936 97.8242 59.7576C97.8359 59.91 97.8711 60.0623 97.8906 60.2186C97.918 60.3905 97.9375 60.5662 97.9688 60.7889C98.3086 60.7733 98.6289 60.7576 98.9805 60.742C99.0234 60.953 99.0664 61.1405 99.0977 61.3358C99.1133 61.4178 99.1016 61.5037 99.1016 61.6092C98.7539 61.6756 98.4336 61.7381 98.082 61.8045C98.1133 62.1014 98.1367 62.3592 98.1641 62.6287C97.9063 62.785 97.6484 62.7576 97.3438 62.742C97.3125 62.535 97.2852 62.3436 97.25 62.0936Z" fill="#E7DDCD"/>
<path d="M44.9297 57.6641C44.8594 57.6484 44.8398 57.6016 44.8008 57.5859C44.168 57.3086 43.8711 56.8008 43.7539 56.1328C43.6758 55.6875 43.5313 55.2539 43.4102 54.7578C43.8047 54.1953 44.2031 53.6914 44.6367 53.1641C44.9648 54.1328 45.2422 55.1328 45.5703 56.1133C45.7109 56.543 45.6719 56.8828 45.375 57.207C45.2383 57.3516 45.1055 57.5 44.9297 57.6641Z" fill="#BA4E34"/>
<path d="M50.7927 45.6758C50.7888 45.207 50.8318 44.7305 50.8826 44.2539C50.8943 44.1719 50.9451 44.0859 50.9959 44.0195C51.5505 43.2891 52.1091 42.5625 52.7107 41.8125C53.0857 42.0391 53.4177 42.293 53.7771 42.582C53.2263 43.3516 52.6326 44.0742 52.0779 44.8203C51.8396 45.1406 51.5662 45.3672 51.2029 45.5039C51.0818 45.5547 50.9607 45.6133 50.7927 45.6758Z" fill="#BD4E34"/>
<path d="M59.6055 67.4531C59.5625 67.7461 59.5313 68.043 59.5352 68.3555C59.5391 69.3828 59.5312 70.4102 59.5234 71.5039C59.0742 70.9844 58.625 70.4141 58.207 69.8203C58.1133 69.6875 58.1055 69.4844 58.1016 69.3125C58.0859 68.8281 58.0937 68.3398 58.0898 67.7852C58.5742 67.6289 59.0586 67.5391 59.6055 67.4531Z" fill="#BA4E34"/>
<path d="M62.4414 49.0078C62.543 49.082 62.6094 49.1992 62.6992 49.2266C63.6836 49.5352 64.457 50.1836 65.2578 50.793C65.6055 51.0586 65.9453 51.332 66.3086 51.6445C65.9141 51.6914 65.4961 51.6914 65.0781 51.7109C64.8828 51.7187 64.6875 51.7539 64.4492 51.8203C64.1758 51.6914 63.9414 51.5313 63.7227 51.3477C63.3828 51.0664 63.0625 50.7656 62.7227 50.4844C62.543 50.332 62.4492 50.1641 62.4414 49.918C62.4375 49.6562 62.3867 49.3945 62.3555 49.082C62.3555 49.0313 62.4102 49.0117 62.4414 49.0078Z" fill="#BD4E34"/>
<path d="M31.2614 84.6641C32.8239 84.6836 34.0192 85.3828 34.8942 86.6523C35.1755 87.0586 35.3591 87.5117 35.4606 88.0703C35.3825 88.3242 35.3083 88.4883 35.281 88.6602C35.156 89.3867 34.8122 89.9805 34.2653 90.4766C33.07 91.5664 31.7028 91.625 30.402 90.9531C29.781 90.6289 29.3317 90.125 29.0192 89.4766C28.7263 88.8672 28.7145 88.2383 28.7341 87.5938C28.7497 87.0469 28.945 86.543 29.2888 86.1289C29.7575 85.5664 30.281 85.0508 31.0349 84.875C31.1599 84.8438 31.2302 84.7813 31.2614 84.6641Z" fill="#E0823B"/>
<path d="M91.3047 85.7969C91.5 84.0977 92.4414 82.9883 94.0078 82.3711C94.1719 82.3086 94.3438 82.2734 94.6016 82.2617C94.9688 82.3555 95.2578 82.3906 95.5234 82.4844C96.4687 82.8164 97.1719 83.4258 97.5508 84.3711C97.6367 84.5859 97.8125 85.4336 97.7852 85.5977C97.6328 86.4883 97.3281 87.2813 96.5977 87.8945C95.7344 88.6133 94.7695 88.7891 93.7383 88.4922C92.5117 88.1367 91.7656 87.2812 91.5234 86.0117C91.5 85.8828 91.418 85.8281 91.3047 85.7969Z" fill="#E0823B"/>
<path d="M31.2105 84.6562C31.23 84.7812 31.1597 84.8438 31.0347 84.875C30.2808 85.0508 29.7574 85.5664 29.2886 86.1289C28.9449 86.543 28.7496 87.0469 28.7339 87.5938C28.7144 88.2383 28.7261 88.8672 29.0191 89.4766C29.3316 90.125 29.7808 90.6289 30.4019 90.9531C31.7027 91.625 33.0699 91.5664 34.2652 90.4766C34.8121 89.9805 35.1558 89.3867 35.2808 88.6602C35.3082 88.4883 35.3824 88.3242 35.4644 88.1172C35.7925 89.3945 35.5152 90.5898 34.7261 91.668C33.6832 93.0898 31.855 93.7266 30.1089 93.2695C28.4058 92.8242 27.1324 91.4531 26.8902 89.6641C26.5542 87.1523 28.1714 85.3281 30.0425 84.8203C30.4058 84.7227 30.7847 84.7031 31.2105 84.6562Z" fill="#C05036"/>
<path d="M54.8865 84.762C55.5349 84.0159 56.2927 83.5511 57.2185 83.3519C59.8513 82.7894 62.1755 84.8324 62.2341 87.2699C62.2771 88.9808 61.3044 90.5863 59.7224 91.2386C56.8474 92.4183 53.9841 90.3402 53.9294 87.512C53.906 86.4925 54.2263 85.5941 54.8865 84.762ZM59.2693 84.0824C58.7107 83.8831 58.1365 83.8792 57.5661 83.9925C56.7966 84.1449 56.1833 84.5745 55.699 85.1761C55.2536 85.7308 55.1169 86.4066 55.0115 87.0902C54.9997 87.1722 55.0349 87.262 55.0505 87.3519C55.0779 87.5003 55.1013 87.6566 55.1365 87.805C55.2927 88.4183 55.574 88.9964 56.0427 89.3988C56.6286 89.9105 57.3044 90.305 58.1521 90.2074C58.3279 90.1878 58.5075 90.2152 58.6833 90.2034C59.2536 90.1644 59.7575 89.9574 60.199 89.598C60.7497 89.1488 61.0896 88.5667 61.3005 87.8949C61.4568 87.4105 61.4646 86.9144 61.3552 86.4495C61.156 85.6097 60.738 84.8831 59.9568 84.4339C59.7654 84.3206 59.5622 84.223 59.2693 84.0824Z" fill="#C15237"/>
<path d="M91.293 85.8559C91.418 85.8285 91.5 85.8832 91.5234 86.0121C91.7656 87.2817 92.5117 88.1371 93.7383 88.4926C94.7695 88.7895 95.7344 88.6137 96.5977 87.8949C97.3281 87.2817 97.6328 86.4887 97.7852 85.5981C97.8125 85.434 97.6367 84.5863 97.5508 84.3715C97.1719 83.4262 96.4687 82.8168 95.5234 82.4848C95.2578 82.391 94.9687 82.3559 94.6523 82.266C96.3789 81.9848 97.7695 82.6059 98.707 84.1059C100.055 86.2504 99.043 89.3246 96.3008 90.0512C93.7461 90.7231 91.3047 88.8285 91.2734 86.184C91.2734 86.0942 91.2812 86.0043 91.293 85.8559Z" fill="#C15137"/>
<path d="M111.769 68.4258C111.683 69.1641 111.609 69.8477 111.523 70.5274C111.496 70.7423 111.472 70.9688 111.402 71.1719C111.273 71.5391 110.902 71.7188 110.484 71.6485C110.09 71.5821 109.828 71.3282 109.793 70.9571C109.781 70.8243 109.785 70.6915 109.797 70.5587C109.941 69.2657 110.09 67.9727 110.238 66.6485C110.812 66.5157 111.332 66.7071 111.902 66.7657C111.961 67.3282 111.765 67.8438 111.769 68.4258Z" fill="#17202D"/>
<path d="M73.7226 18.0117C74.1484 18.0898 74.5195 18.1484 74.8906 18.2188C75.6601 18.3672 76.0273 18.8945 75.8984 19.6602C75.832 20.0273 75.7539 20.3984 75.6797 20.7656C75.5117 21.5938 75.0351 21.918 74.1914 21.7695C73.4101 21.6289 72.6289 21.4727 71.8437 21.3242C71.4336 21.2461 71.0273 21.168 70.6328 21.0938C70.5781 20.5703 70.9179 18.543 71.2148 17.5742C72.0351 17.6641 72.8476 17.8594 73.7226 18.0117Z" fill="#151F2D"/>
<path d="M107.613 48.9606C107.379 49.0582 107.199 49.1442 107.008 49.2067C106.34 49.4332 105.816 49.2262 105.531 48.5856C105.16 47.7536 104.809 46.9137 104.473 46.0661C104.215 45.4176 104.434 44.8747 105.066 44.5778C105.488 44.3786 105.922 44.1989 106.359 44.0387C106.957 43.8239 107.488 44.027 107.75 44.6012C108.148 45.4918 108.519 46.3981 108.879 47.3043C109.074 47.8004 108.898 48.2848 108.441 48.57C108.195 48.7223 107.922 48.82 107.613 48.9606Z" fill="#151F2D"/>
<path d="M87.3281 38.7852C86.9023 38.8398 86.5898 38.6758 86.3047 38.457C86.0039 38.2266 85.7188 37.9844 85.4062 37.7266C85.543 37.3789 85.8164 37.1484 86.0273 36.8711C86.2266 36.6094 86.4414 36.3633 86.6562 36.1016C87.082 36.3438 87.418 36.6367 87.7344 36.9414C88.4336 37.6211 88.2852 38.3281 87.3281 38.7852Z" fill="#1A2534"/>
<path d="M70.9802 30.7576C70.9528 30.9842 70.9489 31.1639 70.9021 31.3318C70.6247 32.3904 69.6482 32.9334 68.5896 32.6287C67.5817 32.3358 67.0427 31.3475 67.3396 30.3358C67.5778 29.5311 68.2263 29.0272 69.0427 28.9998C69.8552 28.9764 70.6911 29.4764 70.8982 30.3162C70.9294 30.4412 70.9528 30.574 70.9802 30.7576Z" fill="#162231"/>
<path d="M61.1289 29.1758C61.6836 28.9336 62.2383 28.9336 62.7852 28.9922C63.2539 29.043 63.5195 29.3477 63.5977 29.8282C63.6758 30.2813 63.4844 30.6602 63.0625 30.8711C62.9453 30.9297 62.8164 30.9805 62.6875 30.9961C62.25 31.0586 61.8086 31.1016 61.3359 31.1524C61.1602 30.5039 61.1445 29.8672 61.1289 29.1758Z" fill="#1A2534"/>
<path d="M94.0076 50.703C93.8787 50.5702 93.7772 50.4803 93.7108 50.367C93.453 49.9334 93.4959 49.5077 93.8201 49.1405C94.3983 48.4764 95.1444 48.1209 96.0233 48.0702C96.4569 48.0467 96.785 48.2537 96.9959 48.6405C97.2069 49.0311 97.1951 49.4295 96.9178 49.7616C96.2733 50.5311 95.4451 50.9373 94.4217 50.867C94.2967 50.8592 94.1756 50.7772 94.0076 50.703Z" fill="#182332"/>
<path d="M59.3202 84.1018C59.5624 84.2229 59.7655 84.3206 59.9569 84.4339C60.7382 84.8831 61.1562 85.6096 61.3554 86.4495C61.4648 86.9143 61.4569 87.4104 61.3007 87.8948C61.0898 88.5667 60.7499 89.1487 60.1991 89.5979C59.7577 89.9573 59.2538 90.1643 58.6835 90.2034C58.5077 90.2151 58.328 90.1878 58.1523 90.2073C57.3046 90.305 56.6288 89.9104 56.0429 89.3987C55.5741 88.9964 55.2929 88.4182 55.1366 87.805C55.1015 87.6565 55.078 87.5003 55.0507 87.3518C55.0351 87.262 54.9999 87.1721 55.0116 87.0901C55.1171 86.4065 55.2538 85.7307 55.6991 85.176C56.1835 84.5745 56.7968 84.1448 57.5663 83.9925C58.1366 83.8792 58.7108 83.8831 59.3202 84.1018Z" fill="#E0813A"/>
</g>
<path d="M708.79 61.3742C703.994 61.8798 699.037 62.2205 694.083 62.1843C693.294 62.1786 692.238 60.6021 691.78 59.5459C688.686 52.4127 683.413 49.8016 675.785 51.0714C672.853 51.5595 669.771 51.1509 666.335 51.1509C666.335 54.9727 666.335 58.476 666.335 62.1788C661.718 62.1788 657.526 62.1788 653.139 62.1788C653.139 48.6972 653.139 35.3766 653.139 21.4019C654.409 21.4019 655.714 21.4018 657.018 21.4019C669.696 21.4038 682.374 21.3899 695.052 21.4126C704.863 21.4301 709.303 25.9409 709.296 35.8129C709.289 44.7361 708.516 46.2243 701.579 50.441C703.931 53.9922 706.28 57.5384 708.79 61.3742ZM666.175 36.2631C666.175 37.8517 666.175 39.4402 666.175 41.3113C675.102 41.3113 683.476 41.3997 691.846 41.2638C694.821 41.2155 696.29 39.0846 696.307 36.309C696.323 33.5759 694.951 31.2211 692.024 31.1507C683.544 30.9465 675.056 31.0784 666.176 31.0784C666.176 32.8104 666.176 34.1555 666.175 36.2631Z" fill="#141F2E"/>
<path d="M329.47 22.6567C334.665 25.3195 336.913 29.2146 336.559 34.8613C336.248 39.803 336.498 44.7794 336.488 49.7405C336.473 56.5873 332.271 62.0108 325.428 62.2004C310.462 62.6151 295.477 62.3287 280.328 62.3287C280.328 48.6434 280.328 35.3179 280.328 21.4026C281.646 21.4026 282.964 21.4024 284.283 21.4026C296.961 21.4043 309.64 21.3502 322.317 21.4591C324.605 21.4787 326.887 22.1688 329.47 22.6567ZM313.395 31.0246C306.824 31.0246 300.253 31.0246 293.581 31.0246C293.581 38.4425 293.581 45.2893 293.581 52.5875C301.161 52.5875 308.572 52.6166 315.983 52.5773C320.904 52.5512 323.277 50.2552 323.557 45.2968C323.651 43.6456 323.575 41.9844 323.566 40.3278C323.525 33.0706 321.501 31.0675 313.395 31.0246Z" fill="#151F2E"/>
<path d="M527.026 40.8449C527.025 38.5034 527.015 36.5716 527.026 34.64C527.069 26.871 531.565 21.7254 539.35 21.5037C550.103 21.1975 560.878 21.2075 571.632 21.5081C578.892 21.7109 583.339 26.8922 583.36 34.2195C583.375 39.3247 583.381 44.43 583.373 49.5351C583.361 56.9585 578.728 62.1244 571.236 62.2996C560.48 62.5512 549.709 62.5492 538.953 62.296C532.023 62.1329 527.113 56.5645 527.034 49.5334C527.002 46.7741 527.027 44.0143 527.026 40.8449ZM544.026 51.867C548.52 52.1079 553.017 52.3002 557.507 52.5986C571.263 53.5128 570.523 49.2384 570.437 38.7152C570.434 38.3048 570.382 37.8923 570.323 37.4852C569.713 33.2968 567.397 31.16 563.147 31.0417C559.985 30.9536 556.818 31.0264 553.653 31.0266C540.602 31.0274 540.08 31.4037 540.436 44.4715C540.501 46.867 542.365 49.2136 544.026 51.867Z" fill="#151F2E"/>
<path d="M633.372 23.9111C634.095 22.8319 634.779 21.5583 635.544 21.5084C638.962 21.2854 642.402 21.4115 646.079 21.4115C646.079 35.1214 646.079 48.5481 646.079 62.3809C640.581 62.3809 635.104 62.3808 629.627 62.3809C620.8 62.3811 611.972 62.4349 603.146 62.3661C594.975 62.3025 590.027 57.3153 589.994 49.1862C589.957 40.0923 589.985 30.9981 589.985 21.6547C594.402 21.6547 598.615 21.6547 603.252 21.6547C603.252 29.1456 603.249 36.5547 603.253 43.9639C603.256 50.5334 605.29 52.5638 611.899 52.5732C618.908 52.5833 625.916 52.5755 633.371 52.5755C633.371 42.9284 633.371 33.6043 633.372 23.9111Z" fill="#141F2E"/>
<path d="M216.369 45.8057C216.369 37.5538 216.369 29.716 216.369 21.4085C217.979 21.4085 219.322 21.4085 220.665 21.4085C233.348 21.409 246.031 21.3874 258.713 21.4171C268.109 21.439 272.704 26.003 272.704 35.2131C272.704 44.1402 272.704 53.0672 272.704 62.1865C268.327 62.1865 264.244 62.1865 259.771 62.1865C259.771 55.2845 259.755 48.419 259.775 41.5535C259.799 32.8844 258.034 31.0563 249.485 31.0513C243.282 31.0476 237.08 31.0789 230.878 31.1116C230.631 31.1129 230.384 31.2903 229.817 31.5096C229.817 41.532 229.817 51.6787 229.817 62.1033C225.305 62.1033 221.104 62.1033 216.37 62.1033C216.37 56.8665 216.37 51.5432 216.369 45.8057Z" fill="#141E2E"/>
<path d="M473.353 41.3609C469.478 34.7442 465.775 28.3772 461.72 21.4052C466.656 21.4052 470.905 21.1857 475.106 21.5393C476.363 21.6451 477.848 23.1294 478.607 24.364C482.501 30.6963 486.185 37.1569 489.959 43.5635C490.71 44.8386 491.528 46.0738 492.449 47.5394C497.171 39.5332 501.792 31.8699 506.21 24.0913C507.401 21.9946 508.785 21.2419 511.14 21.362C514.837 21.5506 518.55 21.4121 522.767 21.4121C522.188 22.6665 521.841 23.6195 521.336 24.4793C514.501 36.1096 507.577 47.6885 500.847 59.3796C499.49 61.7381 497.845 62.1502 495.304 62.5266C487.992 63.6092 483.573 60.8763 480.724 54.1375C478.863 49.7344 475.962 45.7709 473.353 41.3609Z" fill="#151F2E"/>
<path d="M414.4 46.799C418.966 39.0651 423.43 31.623 427.751 24.0983C428.913 22.076 430.395 21.6511 432.635 21.2763C440.317 19.9913 444.505 23.2373 447.977 29.9831C453.567 40.8439 460.218 51.1586 466.815 62.3746C461.804 62.3746 457.344 62.5289 452.91 62.2575C451.903 62.1958 450.708 60.8273 450.071 59.7749C445.441 52.1196 440.931 44.3912 436.08 36.1721C431.463 43.9378 426.937 51.2641 422.734 58.7712C421.209 61.4956 419.565 62.7839 416.328 62.4581C412.942 62.1175 409.495 62.382 405.314 62.382C408.492 56.93 411.368 51.995 414.4 46.799Z" fill="#151F2E"/>
<path d="M230.978 103.378C228.597 106.808 225.338 107.642 221.752 107.656C214.717 107.683 207.682 107.684 200.647 107.664C195.48 107.649 195.275 107.351 196.324 101.302C202.811 101.302 209.39 101.302 215.968 101.302C217.209 101.302 218.54 101.583 219.669 101.228C221.01 100.805 222.179 99.8345 223.423 99.1015C222.221 98.4598 221.039 97.3143 219.813 97.2644C214.718 97.0572 209.567 97.5689 204.523 97.0213C201.933 96.7402 198.759 95.4041 197.188 93.4616C193.545 88.9543 196.848 81.9447 202.976 81.6022C212.421 81.0743 221.916 81.4632 231.327 81.4632C232.427 87.6562 232.335 87.7837 226.818 87.7873C220.611 87.7914 214.401 87.6931 208.198 87.857C206.965 87.8895 205.758 88.9057 204.539 89.4682C205.808 90.1386 207.053 91.3253 208.351 91.3871C213.168 91.6165 218.003 91.4089 222.83 91.4891C230.004 91.6084 233.165 96.0778 230.978 103.378Z" fill="#8B9097"/>
<path d="M336.61 100.415C332.825 100.398 329.399 100.398 325.733 100.398C325.567 101.45 325.243 102.252 325.357 102.986C325.971 106.936 324.169 107.923 320.477 107.771C317.639 107.655 316.606 106.904 316.674 103.971C316.847 96.5647 316.731 89.1515 316.731 81.4748C326.869 81.4748 336.508 81.1209 346.086 81.733C348.372 81.8791 351.599 84.8783 352.356 87.2228C353.463 90.6543 353.928 94.9177 350.534 98.0125C349.83 98.6544 349.017 99.1769 348.021 99.9315C349.423 102.263 350.797 104.548 352.204 106.888C345.405 108.882 343.337 108.162 339.56 102.877C338.882 101.929 337.843 101.24 336.61 100.415ZM325.852 87.7158C325.479 89.606 325.105 91.4963 324.614 93.9855C330.351 93.9855 335.273 93.9409 340.195 94.0049C342.541 94.0355 344.489 93.5103 344.444 90.7649C344.402 88.149 342.573 87.3683 340.187 87.4032C335.639 87.4697 331.091 87.4635 325.852 87.7158Z" fill="#8B9097"/>
<path d="M202.101 52.5684C204.701 52.5684 206.892 52.5684 209.42 52.5684C209.42 55.798 209.42 58.8631 209.42 62.1633C191.001 62.1633 172.462 62.1633 153.66 62.1633C153.66 59.2052 153.66 56.2372 153.66 52.5684C169.605 52.5684 185.649 52.5684 202.101 52.5684Z" fill="#182330"/>
<path d="M394.241 52.5616C396.126 52.5615 397.609 52.5615 399.27 52.5615C399.27 55.9523 399.27 58.9315 399.27 62.1518C380.745 62.1518 362.204 62.1518 343.384 62.1518C343.384 59.1364 343.384 56.073 343.384 52.5617C360.302 52.5617 377.071 52.5617 394.241 52.5616Z" fill="#182330"/>
<path d="M176.459 46.5016C168.741 46.5016 161.436 46.5016 153.76 46.5016C153.76 43.5419 153.76 40.7532 153.76 37.6543C172.184 37.6543 190.717 37.6543 209.509 37.6543C209.509 40.4067 209.509 43.2169 209.509 46.5016C198.574 46.5016 187.724 46.5016 176.459 46.5016Z" fill="#182332"/>
<path d="M372.796 46.5017C362.869 46.5017 353.356 46.5017 343.471 46.5017C343.471 43.5504 343.471 40.7633 343.471 37.6553C361.893 37.6553 380.429 37.6553 399.217 37.6553C399.217 40.3957 399.217 43.2086 399.217 46.5017C390.5 46.5017 381.855 46.5017 372.796 46.5017Z" fill="#182332"/>
<path d="M382.737 31.0345C369.404 31.0345 356.486 31.0345 343.345 31.0345C343.345 27.7688 343.345 24.8167 343.345 21.6426C362.013 21.6426 380.524 21.6426 399.245 21.6426C399.245 24.7294 399.245 27.6837 399.245 31.0344C393.806 31.0344 388.478 31.0344 382.737 31.0345Z" fill="#131E2C"/>
<path d="M163.215 21.4248C178.777 21.4248 193.926 21.4248 209.411 21.4248C209.411 24.5827 209.411 27.6234 209.411 30.8566C190.874 30.8566 172.351 30.8566 153.618 30.8566C153.618 27.7244 153.618 24.77 153.618 21.4248C156.806 21.4248 159.805 21.4248 163.215 21.4248Z" fill="#131E2C"/>
<path d="M179.986 103.645C177.469 99.3978 175.104 95.4162 172.392 90.8487C169.966 94.9286 167.896 98.4522 165.785 101.952C161.861 108.459 161.416 108.64 153 107.071C157.323 99.7229 161.689 92.6278 165.696 85.336C167.366 82.2988 169.288 80.9864 172.833 81.1953C175.457 81.3499 177.135 81.9622 178.478 84.3433C182.726 91.8758 187.193 99.2852 191.621 106.819C185.086 108.811 182.714 108.164 179.986 103.645Z" fill="#8B9097"/>
<path d="M386.555 91.6953C389.595 96.8996 392.472 101.849 395.403 106.892C388.098 108.843 386.668 108.293 383.127 102.402C380.941 98.7638 378.776 95.1126 376.229 90.8428C373.598 95.2376 370.938 99.0457 368.956 103.179C367.104 107.042 364.506 108.385 360.461 107.535C359.437 107.32 358.35 107.407 356.633 107.323C361.688 98.7659 366.387 90.5692 371.36 82.5427C372.842 80.1507 380.012 80.8344 381.549 83.2798C383.231 85.9571 384.783 88.7165 386.555 91.6953Z" fill="#8B9097"/>
<path d="M241.902 87.4635C239.865 87.4637 238.229 87.4637 236.234 87.4637C236.234 85.457 236.234 83.7567 236.234 81.6719C247.726 81.6719 259.34 81.6719 271.286 81.6719C271.286 83.2986 271.286 85.0005 271.286 87.4628C267.974 87.4628 264.601 87.5929 261.244 87.4218C258.528 87.2833 257.619 88.3042 257.708 91.0035C257.879 96.2126 257.758 101.431 257.758 106.994C254.942 106.994 252.426 106.994 249.509 106.994C249.509 100.709 249.509 94.4279 249.509 87.4633C246.853 87.4633 244.578 87.4633 241.902 87.4635Z" fill="#898F96"/>
<path d="M298.236 91.4662C303.025 91.4662 307.4 91.4662 311.996 91.4662C311.996 93.5329 311.996 95.1092 311.996 96.9361C300.127 96.9361 288.46 96.9361 276.798 96.9361C275.459 91.8873 275.765 91.4704 280.849 91.4653C286.506 91.4597 292.164 91.4654 298.236 91.4662Z" fill="#8E939A"/>
<path d="M294.924 87.4641C288.746 87.4642 282.982 87.4642 276.688 87.4642C276.601 85.5079 276.526 83.8081 276.433 81.6973C288.281 81.6973 299.88 81.6973 311.843 81.6973C311.843 83.3505 311.843 85.1516 311.843 87.4639C306.263 87.4639 300.801 87.4639 294.924 87.4641Z" fill="#898F96"/>
<path d="M303.19 107.349C294.239 107.349 285.7 107.349 276.813 107.349C276.813 105.307 276.813 103.599 276.813 101.596C288.39 101.596 300.041 101.596 311.949 101.596C311.949 103.41 311.949 105.115 311.949 107.349C309.04 107.349 306.321 107.349 303.19 107.349Z" fill="#898F96"/>
<defs>
<clipPath id="clip0_166_191">
<rect width="129" height="128" fill="white"/>
</clipPath>
</defs>
</svg>
